<?xml version="1.0" encoding="iso-8859-1"?>
<!-- Generator: Adobe Illustrator 19.0.0, SVG Export Plug-In . SVG Version: 6.00 Build 0)  -->
<svg version="1.1" id="Capa_1" xmlns="http://www.w3.org/2000/svg" xmlns:xlink="http://www.w3.org/1999/xlink" x="0px" y="0px"
	 viewBox="0 0 472 472" style="enable-background:new 0 0 472 472;" xml:space="preserve">
<path style="fill:#D4EDED;" d="M0,60h472v352H0V60z"/>
<path style="fill:#556180;" d="M24,140h232v208H24V140z"/>
<path style="fill:#29ABE2;" d="M0,60h472v48H0V60z"/>
<circle style="fill:#E6E6E6;" cx="136" cy="244" r="72"/>
<path style="fill:#ED1C24;" d="M112,212v64l64-32L112,212z"/>
<path style="fill:#7AC943;" d="M288,140h56v48h-56V140z"/>
<path style="fill:#FFD949;" d="M288,220h56v48h-56V220z"/>
<path style="fill:#14A085;" d="M288,300h56v48h-56V300z"/>
<g>
	<path style="fill:#29485A;" d="M368,140h80v16h-80V140z"/>
	<path style="fill:#29485A;" d="M368,172h40v16h-40V172z"/>
	<path style="fill:#29485A;" d="M368,220h80v16h-80V220z"/>
	<path style="fill:#29485A;" d="M368,252h56v16h-56V252z"/>
	<path style="fill:#29485A;" d="M368,292h56v16h-56V292z"/>
	<path style="fill:#29485A;" d="M368,324h40v16h-40V324z"/>
</g>
<path style="fill:#ED1C24;" d="M24,76h16v16H24V76z"/>
<path style="fill:#FFD949;" d="M56,76h16v16H56V76z"/>
<path style="fill:#0071BC;" d="M88,76h16v16H88V76z"/>
<path style="fill:#C03B2B;" d="M24,372h232v16H24V372z"/>
<path style="fill:#E74C3D;" d="M48,364h16v32H48V364z"/>
<g>
</g>
<g>
</g>
<g>
</g>
<g>
</g>
<g>
</g>
<g>
</g>
<g>
</g>
<g>
</g>
<g>
</g>
<g>
</g>
<g>
</g>
<g>
</g>
<g>
</g>
<g>
</g>
<g>
</g>
</svg>
