<?xml version="1.0" encoding="utf-8"?>
<!-- Generator: Adobe Illustrator 22.1.0, SVG Export Plug-In . SVG Version: 6.00 Build 0)  -->
<svg version="1.1" id="Layer_1" xmlns="http://www.w3.org/2000/svg" xmlns:xlink="http://www.w3.org/1999/xlink" x="0px" y="0px"
	 viewBox="0 0 657.8 708.7" style="enable-background:new 0 0 657.8 708.7;" xml:space="preserve">
<style type="text/css">
	.st0{fill:#E6E6E6;}
	.st1{fill:#90CAF9;}
	.st2{fill:#B3E5FC;}
	.st3{fill:#E1F5FE;}
	.st4{opacity:0.27;fill:#039BE5;}
	.st5{fill:#29B6F6;}
	.st6{fill:#039BE5;}
	.st7{opacity:0.46;}
	.st8{opacity:0.36;fill:#E1F5FE;}
	.st9{fill:#EA660C;}
	.st10{opacity:0.49;}
	.st11{fill:#C15810;}
	.st12{fill:#FF740D;}
	.st13{fill:#EA6911;}
	.st14{fill:none;stroke:#FFFFFF;stroke-miterlimit:10;}
	.st15{fill:#FFCAA6;}
	.st16{opacity:0.49;fill:#C15810;}
	.st17{fill:#FDBE25;}
	.st18{opacity:0.37;}
	.st19{opacity:0.65;}
	.st20{fill:#FFD880;}
	.st21{opacity:0.55;}
	.st22{fill:none;}
	.st23{opacity:0.29;fill:#FDBE25;}
	.st24{opacity:0.38;fill:#FDBE25;}
	.st25{fill:#FFFFFF;}
	.st26{fill:#F2B225;}
	.st27{fill:none;stroke:#FFFFFF;stroke-width:0.5;stroke-miterlimit:10;}
</style>
<g>
	<ellipse class="st0" cx="236.8" cy="686.8" rx="211.3" ry="21.9"/>
	<path class="st1" d="M103.1,572.6v105.5c0,12.2,60.2,22.1,134.4,22.1s134.4-9.9,134.4-22.1V572.6H103.1z"/>
	<path class="st2" d="M103.1,567.1v105.5c0,12.2,60.2,22.1,134.4,22.1s134.4-9.9,134.4-22.1V567.1H103.1z"/>
	<path class="st3" d="M69.2,285.8C26.4,327,0,383.8,0,446.6c0,125.9,106.3,227.9,237.5,227.9s237.5-102,237.5-227.9
		c0-62.8-26.4-119.6-69.2-160.8H69.2z"/>
	<path class="st4" d="M237.5,664.9C108,664.9,2.7,565.4,0.1,441.8c0,1.6-0.1,3.2-0.1,4.8c0,125.9,106.3,227.9,237.5,227.9
		s237.5-102,237.5-227.9c0-1.6,0-3.2-0.1-4.8C472.4,565.4,367.1,664.9,237.5,664.9z"/>
	<path class="st5" d="M237.5,651.1c-118.7,0-215.3-92.2-215.3-205.4c0-50.8,19.2-98.8,54.4-136.4h322
		c35.1,37.7,54.3,85.7,54.3,136.4C452.9,558.9,356.3,651.1,237.5,651.1z"/>
	<path class="st6" d="M237.5,627.5c-114.6,0-208.5-85.8-215-193.7c-0.2,3.9-0.4,7.9-0.4,11.8c0,113.3,96.6,205.4,215.3,205.4
		s215.3-92.2,215.3-205.4c0-4-0.1-7.9-0.4-11.8C446.1,541.6,352.1,627.5,237.5,627.5z"/>
	<g class="st7">
		<path class="st3" d="M398.5,309.2h-27.3c23.2,38.2,35.8,85,35.8,134.3c0,83.9-36.9,156.9-91,193.5c80-30,136.8-104.4,136.8-191.3
			C452.9,394.9,433.7,346.8,398.5,309.2z"/>
	</g>
	<g>
		<path class="st6" d="M76.5,309.2h27.3C80.6,347.4,68,394.2,68,443.5c0,83.9,36.9,156.9,91,193.5c-80-30-136.8-104.4-136.8-191.3
			C22.2,394.9,41.4,346.8,76.5,309.2z"/>
	</g>
	<path class="st8" d="M452.6,456.2c-77.2,8.9-146.5,54.6-179.8,127.5c-9.9,21.6-15.9,44.1-18.3,66.7
		C361.7,642.5,447.1,559.2,452.6,456.2z"/>
	<path class="st8" d="M137,328.6c3.5,1.8,0.4,15-7,29.5c-7.4,14.5-16.2,24.8-19.7,23c-3.5-1.8-0.4-15,7-29.5
		C124.7,337.1,133.5,326.8,137,328.6z"/>
</g>
<g>
	<path class="st9" d="M598.8,93.1l-33.1,25.4c0,0,12.5,1.6,21-3.2c8.5-4.8,24.2-24.9,24.2-24.9L598.8,93.1z"/>
	<g>
		<path class="st9" d="M537.7,95.1c0,0-3.4,15.3-9.3,18.5c-5.9,3.2-14.7-2.9-17.2-2.5c-1.6,0.3-6.2,1.8-9.6,2.9
			c-2.3,0.8-4.9,0.4-6.9-0.9l-4.2-2.8l4.7-17.2l19.6-11.5L537.7,95.1z"/>
		<g class="st10">
			<g>
				<polygon class="st11" points="526,113.7 533.9,92.5 536,93.4 				"/>
			</g>
			<polygon class="st11" points="522,113.3 531.3,91.3 533.4,92.2 			"/>
			<polygon class="st11" points="517.9,113 528.8,90 530.8,91 			"/>
			<polygon class="st11" points="513.9,112.7 526.2,88.7 528.2,89.8 			"/>
			<polygon class="st11" points="509.8,112.3 523.6,87.5 525.6,88.6 			"/>
			<polygon class="st11" points="505.8,112 521.1,86.2 523,87.4 			"/>
			<polygon class="st11" points="501.8,111.7 518.5,84.9 520.4,86.2 			"/>
			<polygon class="st11" points="497.7,111.3 516,83.7 517.8,84.9 			"/>
			<g>
				<polygon class="st11" points="493.7,111 513.4,82.4 515.2,83.7 				"/>
			</g>
		</g>
		<path class="st0" d="M514.9,81.6l-19.6,11.5l-4.7,17.2l4.2,2.8c0.3,0.2,0.6,0.4,1,0.6c0.1-4.5,0.8-14.9,6.5-18.3
			c7.3-4.4,11.4-9.3,12.9-12.3c0.2-0.4,0.3-0.9,0.2-1.3L514.9,81.6z"/>
	</g>
	<g>
		<path class="st12" d="M511,61.2c0,0-4.5,1.3-11.6,0.9c-7.1-0.4-79.8,3.3-92.8,7.2c-13.1,3.9-4.2,14.7-2.1,15.2
			c2.2,0.5,34.9,1.6,44.5,23.7c9.5,22.1-4.8,45.3,1.8,55.3c6.6,10,17.6,1.3,18.7-0.3c1.1-1.6,19.1-33.5,23.6-53.3
			c4.5-19.8,14.6-22.3,22-27L511,61.2z"/>
		<path class="st13" d="M511.4,64.2l-52.8,2.3l17.3,9.2c6.8,3.6,10.5,11.1,9.3,18.7l-3.7,22.5c0,0,22-35.2,31-36.2L511.4,64.2z"/>
		<g class="st10">
			<g>
				<polygon class="st11" points="414.9,68.5 512.5,61.7 512.6,63.9 				"/>
			</g>
			<g>
				<polygon class="st11" points="403.2,76.7 512.8,63.2 513,65.5 				"/>
			</g>
			<g>
				<polygon class="st11" points="420,85.9 513,65.7 513.5,67.9 				"/>
			</g>
			<g>
				<polygon class="st11" points="435,91.6 512.5,68.2 513.1,70.3 				"/>
			</g>
			<g>
				<polygon class="st11" points="443.7,97.2 513,70.7 513.7,72.8 				"/>
			</g>
			<g>
				<polygon class="st11" points="449.2,103.8 513.3,72.5 514.2,74.5 				"/>
			</g>
			<g>
				<polygon class="st11" points="453.6,118.4 513,74.6 514.3,76.4 				"/>
			</g>
			<g>
				<path class="st11" d="M451.7,147.1c3.8-6.9,8.1-13.6,12.7-20c4.6-6.4,9.5-12.7,14.7-18.6l1.9-2.3l2-2.2c1.3-1.5,2.7-2.9,4-4.4
					c2.8-2.8,5.5-5.7,8.5-8.4c5.7-5.5,11.9-10.5,18.2-15.4l1.3,1.8c-6.3,4.7-12.6,9.5-18.4,14.8c-3,2.6-5.8,5.4-8.6,8.1
					c-1.4,1.4-2.7,2.8-4.1,4.2L482,107l-2,2.2c-5.3,5.8-10.4,11.9-15.1,18.2C460.2,133.7,455.7,140.3,451.7,147.1z"/>
			</g>
			<g>
				<path class="st11" d="M457.9,161.8c7.1-15.3,14.9-30.4,23.6-44.9c4.4-7.2,9-14.3,14.2-21.1c2.6-3.4,5.3-6.7,8.3-9.7
					c3-3.1,6.2-6,10-8.2l1.1,1.9c-3.5,2-6.7,4.7-9.7,7.7c-3,2.9-5.7,6.1-8.3,9.4c-5.3,6.6-10,13.5-14.5,20.6
					C473.4,131.7,465.3,146.6,457.9,161.8z"/>
			</g>
		</g>
	</g>
	<path class="st14" d="M446.8,88.8"/>
	<g>
		<path class="st12" d="M582.5,11.2c0,0-13.9-7.9-20.5-9c-6.6-1.1-15.7-2.7-17.8-2.2c-2,0.5-9.4,17.3-10.9,19
			c-1.5,1.7-6.6,9.8-13,14.4c-6.3,4.6-6.4,17.8-6.4,17.8l3.5,3.2L582.5,11.2z"/>
		<path class="st15" d="M521.7,34.1c6.6-4.8,12-13.2,13.5-15c1.4-1.6,7.7-15.8,10.5-19.1c-0.6,0-1.1,0-1.4,0.1
			c-2,0.5-9.4,17.3-10.9,19c-1.5,1.7-6.6,9.8-13,14.4c-6.3,4.6-6.4,17.8-6.4,17.8l0,0C514.1,48.8,515.9,38.4,521.7,34.1z"/>
		<path class="st16" d="M542.7,5.8c3-0.5,6.1-0.7,9.2-0.7c3.1,0,6.2,0.2,9.3,0.7c3.1,0.5,6.1,1.3,9,2.6c2.9,1.3,5.6,3.2,7.9,5.5
			l-2.1,1.8c-1.8-2.2-4.1-4-6.7-5.5c-2.6-1.4-5.5-2.4-8.4-3.1c-2.9-0.7-6-1.1-9-1.4C548.8,5.6,545.7,5.6,542.7,5.8z M549.2,9.3
			c2.9,0.2,5.8,0.6,8.6,1.3c2.8,0.7,5.5,1.7,8,3c2.5,1.4,4.7,3.1,6.4,5.2l2.1-1.8c-2.2-2.3-4.8-4-7.6-5.3c-2.8-1.2-5.7-2-8.7-2.5
			c-2.9-0.5-5.9-0.6-8.9-0.6c-3,0-5.9,0.2-8.8,0.7C543.3,9,546.3,9.1,549.2,9.3z M546.6,12.8c2.8,0.2,5.6,0.6,8.2,1.3
			c2.7,0.7,5.3,1.6,7.7,2.9c2.4,1.3,4.5,3,6.1,5l2.1-1.8c-2.1-2.2-4.6-3.8-7.3-5.1c-2.7-1.2-5.5-1.9-8.3-2.4
			c-2.8-0.5-5.7-0.6-8.5-0.6c-2.8,0-5.7,0.2-8.4,0.7C540.9,12.5,543.8,12.6,546.6,12.8z M543.9,16.2c2.7,0.2,5.3,0.6,7.9,1.2
			c2.6,0.7,5,1.5,7.3,2.8c2.2,1.3,4.2,2.9,5.8,4.8l2-1.7c-2-2.1-4.4-3.7-7-4.8c-2.6-1.1-5.2-1.8-7.9-2.3c-2.7-0.5-5.4-0.6-8.1-0.6
			c-2.7,0-5.4,0.2-8.1,0.6C538.5,16,541.2,16,543.9,16.2z M541.2,19.7c2.5,0.2,5.1,0.5,7.5,1.2c2.4,0.6,4.8,1.5,7,2.6
			c2.1,1.2,4,2.7,5.5,4.6l2-1.7c-1.9-2-4.2-3.5-6.7-4.6c-2.4-1.1-5-1.7-7.6-2.2c-2.6-0.4-5.2-0.5-7.7-0.5c-2.6,0-5.1,0.2-7.7,0.6
			C536.1,19.4,538.7,19.5,541.2,19.7z M538.6,23.1c2.4,0.2,4.8,0.5,7.1,1.1c2.3,0.6,4.6,1.4,6.6,2.5c2,1.1,3.8,2.6,5.2,4.3l2-1.7
			c-1.8-1.9-4-3.3-6.3-4.4c-2.3-1-4.8-1.6-7.2-2c-2.4-0.4-4.9-0.5-7.4-0.5c-2.4,0-4.9,0.2-7.3,0.6C533.7,22.9,536.2,23,538.6,23.1z
			 M535.9,26.6c2.3,0.2,4.5,0.5,6.7,1.1c2.2,0.6,4.3,1.3,6.2,2.4c1.9,1.1,3.6,2.5,4.9,4.1l1.9-1.7c-1.8-1.8-3.8-3.2-6-4.2
			c-2.2-1-4.5-1.5-6.8-1.9c-2.3-0.4-4.7-0.5-7-0.5c-2.3,0-4.6,0.2-6.9,0.6C531.3,26.4,533.7,26.4,535.9,26.6z M533.3,30.1
			c2.2,0.2,4.3,0.5,6.4,1c2.1,0.5,4.1,1.3,5.9,2.3c1.8,1,3.4,2.3,4.6,3.9l1.9-1.6c-1.7-1.7-3.6-3-5.7-3.9c-2.1-0.9-4.3-1.4-6.5-1.8
			c-2.2-0.4-4.4-0.4-6.6-0.4c-2.2,0-4.4,0.2-6.5,0.6C528.9,29.8,531.1,29.9,533.3,30.1z M530.6,33.5c2,0.2,4,0.5,6,1
			c1.9,0.5,3.8,1.2,5.5,2.1c1.7,1,3.2,2.2,4.4,3.6l1.8-1.6c-1.6-1.6-3.4-2.8-5.4-3.7c-2-0.8-4-1.4-6.1-1.7c-2.1-0.3-4.1-0.4-6.2-0.4
			c-2.1,0-4.1,0.2-6.1,0.5C526.5,33.3,528.6,33.4,530.6,33.5z M528,37c1.9,0.2,3.8,0.4,5.6,0.9c1.8,0.5,3.6,1.1,5.2,2
			c1.6,0.9,3,2.1,4.1,3.4l1.8-1.6c-1.5-1.5-3.2-2.6-5.1-3.5c-1.9-0.8-3.8-1.3-5.7-1.6c-1.9-0.3-3.9-0.4-5.8-0.4
			c-1.9,0-3.9,0.2-5.8,0.5C524.1,36.8,526.1,36.8,528,37z M525.3,40.4c1.8,0.2,3.5,0.4,5.2,0.9c1.7,0.5,3.3,1.1,4.8,1.9
			c1.5,0.9,2.8,1.9,3.8,3.2l1.8-1.5c-1.4-1.4-3-2.5-4.8-3.2c-1.7-0.7-3.6-1.2-5.4-1.5c-1.8-0.3-3.6-0.3-5.4-0.3
			c-1.8,0-3.6,0.2-5.4,0.5C521.7,40.2,523.5,40.3,525.3,40.4z M522.7,43.9c1.6,0.2,3.3,0.4,4.8,0.8c1.6,0.4,3.1,1,4.5,1.8
			c1.4,0.8,2.5,1.8,3.5,3l1.7-1.5c-1.3-1.3-2.8-2.3-4.5-3c-1.6-0.7-3.3-1.1-5-1.3c-1.7-0.3-3.4-0.3-5.1-0.3c-1.7,0-3.3,0.2-5,0.5
			C519.3,43.7,521,43.8,522.7,43.9z"/>
	</g>
	<path class="st17" d="M657.2,47.2c0,0-12.3-15.1-22-18.5c-1.2-0.4-2.4-1.1-3.4-1.9c-3.5-3-11.6-9.7-15-10.6c0,0,0,0,0,0
		c-7.6-5.5-27.5-5-27.5-5l0,0c-4.3-0.4-9.3-0.1-14.6,1.2c-18.2,4.5-45.7,29.3-64.6,48.9c-1.4,8.9-0.5,14.2,3.5,22.1
		c0,0,19.7,13.2,39.8,15.5c20.1,2.3,52.2,4.5,80.2-22.5C661.7,49.6,657.2,47.2,657.2,47.2z"/>
	<g class="st18">
		<g class="st19">
			<path class="st12" d="M597.4,21.5c0.2,2.5,2.5,4.4,5.3,4.6c0.3,0,0.6-0.1,0.9-0.3c0.2-0.2,0.3-0.5,0.3-0.9l-0.7-7.9
				c0-0.3-0.2-0.6-0.5-0.8c-0.3-0.2-0.6-0.2-0.9-0.2C599.1,16.8,597.2,19,597.4,21.5z"/>
			<path class="st20" d="M598.4,21.4c0.2,2.5,2.3,4.5,4.7,4.7c0.5,0,1-0.3,1.1-0.8c0.9-3.2,0.8-5.4-0.8-8.8
				c-0.2-0.5-0.7-0.7-1.3-0.6C599.9,16.6,598.2,18.9,598.4,21.4z"/>
		</g>
		<g class="st19">
			<path class="st12" d="M597.9,32.5c0.6,2.4,3.1,4,6,3.8c0.3,0,0.6-0.2,0.8-0.4c0.2-0.3,0.3-0.6,0.2-0.9l-1.8-7.8
				c-0.1-0.3-0.3-0.6-0.6-0.7c-0.3-0.1-0.6-0.2-0.9,0C598.9,27.5,597.3,30,597.9,32.5z"/>
			<path class="st20" d="M598.8,32.2c0.6,2.5,2.9,4.2,5.4,4c0.5,0,0.9-0.4,1-0.9c0.5-3.3,0-5.5-2-8.6c-0.3-0.4-0.8-0.6-1.3-0.4
				C599.6,27.2,598.3,29.7,598.8,32.2z"/>
		</g>
		<g class="st19">
			<path class="st12" d="M605.8,26.1c-0.3,2.1,1.3,4.1,3.7,4.8c0.3,0.1,0.5,0,0.8-0.1c0.2-0.1,0.4-0.4,0.4-0.7l0.8-6.8
				c0-0.3-0.1-0.5-0.2-0.7c-0.2-0.2-0.5-0.3-0.7-0.3C608,22.4,606,23.9,605.8,26.1z"/>
			<path class="st20" d="M606.6,26.2c-0.3,2.2,1.1,4.2,3.1,4.8c0.4,0.1,0.9-0.1,1.1-0.4c1.4-2.5,1.6-4.4,0.9-7.5
				c-0.1-0.4-0.5-0.7-1-0.7C608.7,22.4,606.9,24,606.6,26.2z"/>
		</g>
		<g class="st19">
			<path class="st12" d="M612.5,20.6c-0.1,1.5,1.1,2.8,2.8,3.2c0.2,0,0.4,0,0.5-0.1c0.2-0.1,0.2-0.3,0.3-0.5l0.3-4.7
				c0-0.2-0.1-0.4-0.2-0.5c-0.1-0.1-0.3-0.2-0.5-0.2C613.9,17.9,612.5,19.1,612.5,20.6z"/>
			<path class="st20" d="M613.1,20.6c-0.1,1.5,0.9,2.8,2.4,3.2c0.3,0.1,0.6-0.1,0.7-0.4c0.8-1.8,0.9-3.1,0.3-5.2
				c-0.1-0.3-0.4-0.5-0.7-0.4C614.3,17.9,613.1,19.1,613.1,20.6z"/>
		</g>
		<g class="st19">
			<path class="st12" d="M606.6,18.8c0,1.1,0.9,2.1,2.1,2.4c0.1,0,0.3,0,0.4-0.1c0.1-0.1,0.2-0.2,0.2-0.4l0.1-3.6
				c0-0.1-0.1-0.3-0.2-0.4c-0.1-0.1-0.3-0.1-0.4-0.1C607.6,16.8,606.6,17.7,606.6,18.8z"/>
			<path class="st20" d="M607,18.8c0,1.2,0.8,2.1,1.9,2.4c0.2,0,0.5-0.1,0.5-0.3c0.6-1.4,0.6-2.4,0.1-4c-0.1-0.2-0.3-0.4-0.5-0.3
				C607.9,16.8,607,17.7,607,18.8z"/>
		</g>
		<g class="st19">
			<path class="st12" d="M597.7,40.4c0.1,1.6,1.6,2.9,3.4,3c0.2,0,0.4-0.1,0.6-0.2c0.1-0.1,0.2-0.3,0.2-0.6l-0.4-5.2
				c0-0.2-0.1-0.4-0.3-0.5c-0.2-0.1-0.4-0.2-0.6-0.1C598.8,37.3,597.6,38.8,597.7,40.4z"/>
			<path class="st20" d="M598.4,40.4c0.1,1.7,1.4,2.9,3,3.1c0.3,0,0.6-0.2,0.7-0.5c0.6-2,0.6-3.5-0.4-5.7c-0.1-0.3-0.5-0.5-0.8-0.4
				C599.3,37.2,598.2,38.7,598.4,40.4z"/>
		</g>
		<g class="st19">
			<path class="st12" d="M608.4,79.8c0.5,2.1,2.7,3.4,5.1,3.3c0.3,0,0.5-0.2,0.7-0.4c0.2-0.2,0.2-0.5,0.2-0.8l-1.6-6.7
				c-0.1-0.3-0.2-0.5-0.5-0.6s-0.5-0.1-0.8,0C609.3,75.5,607.9,77.7,608.4,79.8z"/>
			<path class="st20" d="M609.3,79.6c0.5,2.1,2.5,3.6,4.6,3.4c0.4,0,0.8-0.4,0.9-0.8c0.4-2.8,0-4.7-1.7-7.4
				c-0.2-0.4-0.7-0.5-1.1-0.3C609.9,75.3,608.8,77.4,609.3,79.6z"/>
		</g>
		<g class="st19">
			<path class="st12" d="M618,81.4c1.1,1.5,3.2,1.8,5.1,0.8c0.2-0.1,0.4-0.3,0.4-0.5s0-0.5-0.1-0.6l-3.5-4.7
				c-0.1-0.2-0.4-0.3-0.6-0.3c-0.2,0-0.5,0.1-0.6,0.2C617.2,77.8,616.9,80,618,81.4z"/>
			<path class="st20" d="M618.6,81c1.1,1.5,3.1,1.9,4.7,1.1c0.3-0.2,0.5-0.5,0.4-0.9c-0.6-2.3-1.6-3.7-3.8-5.1
				c-0.3-0.2-0.7-0.2-1,0.1C617.6,77.5,617.5,79.5,618.6,81z"/>
		</g>
		<g class="st19">
			<path class="st12" d="M604.8,73.8c1.1,1.5,3.2,1.8,5.1,0.8c0.2-0.1,0.4-0.3,0.4-0.5c0.1-0.2,0-0.5-0.1-0.6l-3.5-4.7
				c-0.1-0.2-0.3-0.3-0.6-0.3c-0.2,0-0.5,0.1-0.6,0.2C604.1,70.3,603.7,72.4,604.8,73.8z"/>
			<path class="st20" d="M605.4,73.4c1.1,1.5,3.1,1.9,4.7,1.1c0.3-0.2,0.5-0.5,0.4-0.9c-0.6-2.3-1.6-3.7-3.8-5.1
				c-0.3-0.2-0.7-0.2-1,0.1C604.5,69.9,604.3,71.9,605.4,73.4z"/>
		</g>
		<g class="st21">
			<path class="st22" d="M521.1,76.3c-0.1,0.6-0.5,1-1,1.1c-0.1,0-0.1,0-0.2,0c-0.1,0-0.1,0.1-0.2,0.1c-3.1,0.3-6-1.2-6.7-3.9
				c-0.8-2.6,0.8-5.5,3.7-6.8c0.1,0,0.2,0,0.2-0.1c0,0,0.1-0.1,0.1-0.1c0.5-0.3,1.1-0.1,1.5,0.4C520.8,70.3,521.5,72.7,521.1,76.3z
				 M531.9,84.7c-0.1,0.6-0.5,1-1,1.1c-0.1,0-0.1,0-0.2,0c-0.1,0-0.1,0.1-0.2,0.1c-3.1,0.3-6-1.2-6.7-3.9c-0.8-2.6,0.8-5.5,3.7-6.8
				c0.1,0,0.2,0,0.2-0.1c0,0,0.1-0.1,0.1-0.1c0.5-0.3,1.1-0.1,1.5,0.4C531.6,78.7,532.3,81.1,531.9,84.7z M529.8,73.7
				c-0.1,0.6-0.5,1-1,1.1c-0.1,0-0.1,0-0.2,0c-0.1,0-0.1,0.1-0.2,0.1c-3.1,0.3-6-1.2-6.7-3.9c-0.8-2.6,0.8-5.5,3.7-6.8
				c0.1,0,0.2,0,0.2-0.1c0,0,0.1-0.1,0.1-0.1c0.5-0.3,1.1-0.1,1.5,0.4C529.5,67.7,530.1,70.1,529.8,73.7z M528,62.6
				c-0.1,0.6-0.5,1-1,1.1c-0.1,0-0.1,0-0.2,0c-0.1,0-0.1,0.1-0.2,0.1c-3.1,0.3-6-1.2-6.7-3.9c-0.8-2.6,0.8-5.5,3.7-6.8
				c0.1,0,0.2,0,0.2-0.1c0,0,0.1-0.1,0.1-0.1c0.5-0.3,1.1-0.1,1.5,0.4C527.7,56.6,528.3,59,528,62.6z M582.6,12.8c0.1,0,0.2,0,0.2,0
				c0.1,0,0.1-0.1,0.1-0.1c0.5-0.2,1.1,0,1.4,0.5c2.2,3.4,2.7,5.9,2.1,9.5c-0.1,0.6-0.6,1-1.1,1c-0.1,0-0.1,0-0.2,0
				c-0.1,0-0.2,0.1-0.2,0.1c-3.1,0.1-5.9-1.6-6.5-4.3C578,16.7,579.7,13.9,582.6,12.8z M594.9,41.3c-0.1,0-0.1,0-0.2,0
				c-0.1,0-0.2,0.1-0.2,0.1c-3.1,0.1-5.9-1.6-6.5-4.3c-0.6-2.7,1.2-5.4,4.1-6.6c0.1,0,0.2,0,0.2,0c0.1,0,0.1-0.1,0.1-0.1
				c0.5-0.2,1.1,0,1.4,0.5c2.2,3.4,2.7,5.9,2.1,9.5C595.9,40.9,595.4,41.3,594.9,41.3z M597.1,51.5c-0.1,0.6-0.6,1-1.1,1
				c-0.1,0-0.1,0-0.2,0c-0.1,0-0.2,0.1-0.2,0.1c-3.1,0.1-5.9-1.6-6.5-4.3c-0.6-2.7,1.2-5.4,4.1-6.6c0.1,0,0.2,0,0.2,0
				c0.1,0,0.1-0.1,0.1-0.1c0.5-0.2,1.1,0,1.4,0.5C597.2,45.4,597.7,47.9,597.1,51.5z M581.4,35.1c0.1,0,0.2,0,0.2,0
				c0.1,0,0.1-0.1,0.1-0.1c0.5-0.2,1.1,0,1.4,0.5c2.2,3.4,2.7,5.9,2.1,9.5c-0.1,0.6-0.6,1-1.1,1c-0.1,0-0.1,0-0.2,0
				c-0.1,0-0.2,0.1-0.2,0.1c-3.1,0.1-5.9-1.6-6.5-4.3C576.8,39,578.5,36.2,581.4,35.1z M586.5,56c-0.1,0.6-0.6,1-1.1,1
				c-0.1,0-0.1,0-0.2,0c-0.1,0-0.2,0.1-0.2,0.1c-3.1,0.1-5.9-1.6-6.5-4.3c-0.6-2.7,1.2-5.4,4.1-6.6c0.1,0,0.2,0,0.2,0
				c0.1,0,0.1-0.1,0.1-0.1c0.5-0.2,1.1,0,1.4,0.5C586.5,50,587,52.4,586.5,56z M563.1,24.2c0.1,0,0.2,0,0.2,0c0,0,0.1-0.1,0.1-0.1
				c0.5-0.2,1.1-0.1,1.5,0.4c1.4,2,2.1,3.6,2.4,5.4c0.4-1.9,1.9-3.7,4.1-4.6c0.1,0,0.2,0,0.2,0c0.1,0,0.1-0.1,0.1-0.1
				c0.5-0.2,1.1,0,1.4,0.5c2.2,3.4,2.7,5.9,2.1,9.5c-0.1,0.6-0.6,1-1.1,1c-0.1,0-0.1,0-0.2,0c-0.1,0-0.2,0.1-0.2,0.1
				c-2.9,0.1-5.5-1.4-6.3-3.8c0,0.5-0.1,1-0.1,1.5c-0.1,0.6-0.5,1-1.1,1c-0.1,0-0.1,0-0.2,0c-0.1,0-0.1,0.1-0.2,0.1
				c-3.1,0.3-5.9-1.4-6.6-4C558.6,28.3,560.3,25.5,563.1,24.2z M574.3,47.3c-0.1,0-0.1,0-0.2,0c-0.1,0-0.2,0.1-0.2,0.1
				c-3.1,0.1-5.9-1.6-6.5-4.3c-0.6-2.7,1.2-5.4,4.1-6.6c0.1,0,0.2,0,0.2,0c0.1,0,0.1-0.1,0.1-0.1c0.5-0.2,1.1,0,1.4,0.5
				c2.2,3.4,2.7,5.9,2.1,9.5C575.3,46.9,574.8,47.3,574.3,47.3z M576.5,57.5c-0.1,0.6-0.6,1-1.1,1c-0.1,0-0.1,0-0.2,0
				c-0.1,0-0.2,0.1-0.2,0.1c-3.1,0.1-5.9-1.6-6.5-4.3c-0.6-2.7,1.2-5.4,4.1-6.6c0.1,0,0.2,0,0.2,0c0.1,0,0.1-0.1,0.1-0.1
				c0.5-0.2,1.1,0,1.4,0.5C576.6,51.4,577.1,53.9,576.5,57.5z M562.4,35.4c0.1,0,0.2,0,0.2,0c0,0,0.1-0.1,0.1-0.1
				c0.5-0.2,1.1-0.1,1.5,0.4c2.3,3.3,2.9,5.8,2.5,9.4c-0.1,0.6-0.5,1-1.1,1c-0.1,0-0.1,0-0.2,0c-0.1,0-0.1,0.1-0.2,0.1
				c-3.1,0.3-5.9-1.4-6.6-4C557.9,39.5,559.5,36.7,562.4,35.4z M566,57.2c-0.1,0-0.1,0-0.2,0c-0.1,0-0.1,0.1-0.2,0.1
				c-3.1,0.3-5.9-1.4-6.6-4c-0.7-2.6,1-5.4,3.8-6.7c0.1,0,0.2,0,0.2,0c0,0,0.1-0.1,0.1-0.1c0.5-0.2,1.1-0.1,1.5,0.4
				c2.3,3.3,2.9,5.8,2.5,9.4C567,56.8,566.6,57.2,566,57.2z M568.6,67.3c-0.1,0.6-0.5,1-1.1,1c-0.1,0-0.1,0-0.2,0
				c-0.1,0-0.1,0.1-0.2,0.1c-3.1,0.3-5.9-1.4-6.6-4c-0.7-2.6,1-5.4,3.8-6.7c0.1,0,0.2,0,0.2,0c0,0,0.1-0.1,0.1-0.1
				c0.5-0.2,1.1-0.1,1.5,0.4C568.5,61.3,569.1,63.7,568.6,67.3z M552.6,30.9c0.1,0,0.2,0,0.2-0.1c0,0,0.1-0.1,0.1-0.1
				c0.5-0.3,1.1-0.1,1.5,0.3c2.4,3.3,3.1,5.7,2.8,9.3c0,0.6-0.5,1-1,1.1c-0.1,0-0.1,0-0.2,0c-0.1,0-0.1,0.1-0.2,0.1
				c-3.1,0.4-6-1.1-6.8-3.8C548.3,35.2,549.8,32.3,552.6,30.9z M552.3,42.1c0.1,0,0.2,0,0.2-0.1c0,0,0.1-0.1,0.1-0.1
				c0.5-0.3,1.1-0.1,1.5,0.3c2.4,3.3,3.1,5.7,2.8,9.3c0,0.6-0.5,1-1,1.1c-0.1,0-0.1,0-0.2,0c-0.1,0-0.1,0.1-0.2,0.1
				c-3.1,0.4-6-1.1-6.8-3.8S549.5,43.5,552.3,42.1z M553.1,53.2c0.1,0,0.2,0,0.2-0.1c0,0,0.1-0.1,0.1-0.1c0.5-0.3,1.1-0.1,1.5,0.4
				c2.4,3.3,3.1,5.7,2.8,9.3c0,0.6-0.5,1-1,1.1c-0.1,0-0.1,0-0.2,0c-0.1,0-0.1,0.1-0.2,0.1c-3.1,0.4-6-1.1-6.8-3.8
				C548.8,57.5,550.3,54.6,553.1,53.2z M559.7,73.7c0,0.6-0.5,1-1,1.1c-0.1,0-0.1,0-0.2,0c-0.1,0-0.1,0.1-0.2,0.1
				c-3.1,0.4-6-1.1-6.8-3.8c-0.8-2.6,0.8-5.5,3.6-6.9c0.1,0,0.2,0,0.2-0.1c0,0,0.1-0.1,0.1-0.1c0.5-0.3,1.1-0.1,1.5,0.3
				C559.3,67.7,560,70.1,559.7,73.7z M542.2,39.2c0.1,0,0.2,0,0.2-0.1c0,0,0.1-0.1,0.1-0.1c0.5-0.3,1.1-0.1,1.5,0.4
				c2.4,3.3,3,5.7,2.7,9.3c-0.1,0.6-0.5,1-1,1.1c-0.1,0-0.1,0-0.2,0c-0.1,0-0.1,0.1-0.2,0.1c-3.1,0.3-6-1.2-6.7-3.9
				C537.8,43.4,539.4,40.5,542.2,39.2z M542.9,50.3c0.1,0,0.2,0,0.2-0.1c0,0,0.1-0.1,0.1-0.1c0.5-0.3,1.1-0.1,1.5,0.4
				c2.4,3.3,3,5.7,2.7,9.3c-0.1,0.6-0.5,1-1,1.1c-0.1,0-0.1,0-0.2,0c-0.1,0-0.1,0.1-0.2,0.1c-3.1,0.3-6-1.2-6.7-3.9
				C538.4,54.5,540,51.7,542.9,50.3z M544.7,61.4c0.1,0,0.2,0,0.2-0.1c0,0,0.1-0.1,0.1-0.1c0.5-0.3,1.1-0.1,1.5,0.4
				c2.4,3.3,3,5.7,2.7,9.3c-0.1,0.6-0.5,1-1,1.1c-0.1,0-0.1,0-0.2,0c-0.1,0-0.1,0.1-0.2,0.1c-3.1,0.3-6-1.2-6.7-3.9
				C540.2,65.5,541.8,62.7,544.7,61.4z M533.2,51c0.1,0,0.2,0,0.2-0.1c0,0,0.1-0.1,0.1-0.1c0.5-0.3,1.1-0.1,1.5,0.4
				c2.4,3.3,3,5.7,2.7,9.3c-0.1,0.6-0.5,1-1,1.1c-0.1,0-0.1,0-0.2,0c-0.1,0-0.1,0.1-0.2,0.1c-3.1,0.3-6-1.2-6.7-3.9
				C528.8,55.1,530.4,52.3,533.2,51z M535,62c0.1,0,0.2,0,0.2-0.1c0,0,0.1-0.1,0.1-0.1c0.5-0.3,1.1-0.1,1.5,0.4
				c2.4,3.3,3,5.7,2.7,9.3c-0.1,0.6-0.5,1-1,1.1c-0.1,0-0.1,0-0.2,0c-0.1,0-0.1,0.1-0.2,0.1c-3.1,0.3-6-1.2-6.7-3.9
				C530.6,66.2,532.2,63.4,535,62z M533.5,79.8c-0.8-2.6,0.8-5.5,3.7-6.8c0.1,0,0.2,0,0.2-0.1c0,0,0.1-0.1,0.1-0.1
				c0.5-0.3,1.1-0.1,1.5,0.4c2.4,3.3,3,5.7,2.7,9.3c-0.1,0.6-0.5,1-1,1.1c-0.1,0-0.1,0-0.2,0c-0.1,0-0.1,0.1-0.2,0.1
				C537.1,84,534.3,82.4,533.5,79.8z M546,92.9c-0.1,0.6-0.5,1-1,1.1c-0.1,0-0.1,0-0.2,0c-0.1,0-0.1,0.1-0.2,0.1
				c-3.1,0.3-6-1.2-6.7-3.9c-0.8-2.6,0.8-5.5,3.7-6.8c0.1,0,0.2,0,0.2-0.1c0,0,0.1-0.1,0.1-0.1c0.5-0.3,1.1-0.1,1.5,0.4
				C545.7,86.9,546.3,89.3,546,92.9z M543.1,79.2c-0.8-2.6,0.8-5.5,3.7-6.8c0.1,0,0.2,0,0.2-0.1c0,0,0.1-0.1,0.1-0.1
				c0.5-0.3,1.1-0.1,1.5,0.4c2.4,3.3,3,5.7,2.7,9.3c-0.1,0.6-0.5,1-1,1.1c-0.1,0-0.1,0-0.2,0c-0.1,0-0.1,0.1-0.2,0.1
				C546.7,83.3,543.9,81.8,543.1,79.2z M555.6,92.2c-0.1,0.6-0.5,1-1,1.1c-0.1,0-0.1,0-0.2,0c-0.1,0-0.1,0.1-0.2,0.1
				c-3.1,0.3-6-1.2-6.7-3.9c-0.8-2.6,0.8-5.5,3.7-6.8c0.1,0,0.2,0,0.2-0.1c0,0,0.1-0.1,0.1-0.1c0.5-0.3,1.1-0.1,1.5,0.4
				C555.3,86.2,555.9,88.6,555.6,92.2z M553.8,82.1c-0.8-2.6,0.8-5.5,3.6-6.9c0.1,0,0.2,0,0.2-0.1c0,0,0.1-0.1,0.1-0.1
				c0.5-0.3,1.1-0.1,1.5,0.4c2.4,3.3,3.1,5.7,2.8,9.3c0,0.6-0.5,1-1,1.1c-0.1,0-0.1,0-0.2,0c-0.1,0-0.1,0.1-0.2,0.1
				C557.4,86.2,554.5,84.7,553.8,82.1z M566.4,95c0,0.6-0.5,1-1,1.1c-0.1,0-0.1,0-0.2,0c-0.1,0-0.1,0.1-0.2,0.1
				c-3.1,0.4-6-1.1-6.8-3.8s0.8-5.5,3.6-6.9c0.1,0,0.2,0,0.2-0.1c0,0,0.1-0.1,0.1-0.1c0.5-0.3,1.1-0.1,1.5,0.4
				C566,89,566.7,91.4,566.4,95z M562.4,75.4c-0.7-2.6,1-5.4,3.8-6.7c0.1,0,0.2,0,0.2,0c0,0,0.1-0.1,0.1-0.1
				c0.5-0.2,1.1-0.1,1.5,0.4c2.3,3.3,2.9,5.8,2.5,9.4c-0.1,0.6-0.5,1-1.1,1c-0.1,0-0.1,0-0.2,0c-0.1,0-0.1,0.1-0.2,0.1
				C565.9,79.7,563.1,78.1,562.4,75.4z M574.6,88.8c-0.1,0.6-0.5,1-1.1,1c-0.1,0-0.1,0-0.2,0c-0.1,0-0.1,0.1-0.2,0.1
				c-3.1,0.3-5.9-1.4-6.6-4c-0.7-2.6,1-5.4,3.8-6.7c0.1,0,0.2,0,0.2,0c0,0,0.1-0.1,0.1-0.1c0.5-0.2,1.1-0.1,1.5,0.4
				C574.4,82.8,575,85.2,574.6,88.8z M569.9,65.3c-0.6-2.7,1.2-5.4,4.1-6.6c0.1,0,0.2,0,0.2,0c0.1,0,0.1-0.1,0.1-0.1
				c0.5-0.2,1.1,0,1.4,0.5c2.2,3.4,2.7,5.9,2.1,9.5c-0.1,0.6-0.6,1-1.1,1c-0.1,0-0.1,0-0.2,0c-0.1,0-0.2,0.1-0.2,0.1
				C573.3,69.7,570.5,68,569.9,65.3z M573.6,75.9c-0.6-2.7,1.2-5.4,4.1-6.6c0.1,0,0.2,0,0.2,0c0.1,0,0.1-0.1,0.1-0.1
				c0.5-0.2,1.1,0,1.4,0.5c2.2,3.4,2.7,5.9,2.1,9.5c-0.1,0.6-0.6,1-1.1,1c-0.1,0-0.1,0-0.2,0c-0.1,0-0.2,0.1-0.2,0.1
				C576.9,80.3,574.2,78.6,573.6,75.9z M585.2,89.7c-0.1,0.6-0.6,1-1.1,1c-0.1,0-0.1,0-0.2,0c-0.1,0-0.2,0.1-0.2,0.1
				c-3.1,0.1-5.9-1.6-6.5-4.3c-0.6-2.7,1.2-5.4,4.1-6.6c0.1,0,0.2,0,0.2,0c0.1,0,0.1-0.1,0.1-0.1c0.5-0.2,1.1,0,1.4,0.5
				C585.3,83.7,585.8,86.2,585.2,89.7z M579.9,63.9c-0.6-2.7,1.2-5.4,4.1-6.6c0.1,0,0.2,0,0.2,0c0.1,0,0.1-0.1,0.1-0.1
				c0.5-0.2,1.1,0,1.4,0.5c2.2,3.4,2.7,5.9,2.1,9.5c-0.1,0.6-0.6,1-1.1,1c-0.1,0-0.1,0-0.2,0c-0.1,0-0.2,0.1-0.2,0.1
				C583.2,68.3,580.5,66.5,579.9,63.9z M583.6,74.5c-0.6-2.7,1.2-5.4,4.1-6.6c0.1,0,0.2,0,0.2,0c0.1,0,0.1-0.1,0.1-0.1
				c0.5-0.2,1.1,0,1.4,0.5c2.2,3.4,2.7,5.9,2.1,9.5c-0.1,0.6-0.6,1-1.1,1c-0.1,0-0.1,0-0.2,0c-0.1,0-0.2,0.1-0.2,0.1
				C586.9,78.9,584.1,77.1,583.6,74.5z M595.2,88.3c-0.1,0.6-0.6,1-1.1,1c-0.1,0-0.1,0-0.2,0c-0.1,0-0.2,0.1-0.2,0.1
				c-3.1,0.1-5.9-1.6-6.5-4.3c-0.6-2.7,1.2-5.4,4.1-6.6c0.1,0,0.2,0,0.2,0c0.1,0,0.1-0.1,0.1-0.1c0.5-0.2,1.1,0,1.4,0.5
				C595.3,82.3,595.8,84.7,595.2,88.3z M584.3,34.7c-0.1,0-0.1,0-0.2,0c-0.1,0-0.2,0.1-0.2,0.1c-3.1,0.1-5.9-1.6-6.5-4.3
				c-0.6-2.7,1.2-5.4,4.1-6.6c0.1,0,0.2,0,0.2,0c0.1,0,0.1-0.1,0.1-0.1c0.5-0.2,1.1,0,1.4,0.5c2.2,3.4,2.7,5.9,2.1,9.5
				C585.3,34.3,584.8,34.7,584.3,34.7z M590.6,59.3c-0.6-2.7,1.2-5.4,4.1-6.6c0.1,0,0.2,0,0.2,0c0.1,0,0.1-0.1,0.1-0.1
				c0.5-0.2,1.1,0,1.4,0.5c2.2,3.4,2.7,5.9,2.1,9.5c-0.1,0.6-0.6,1-1.1,1c-0.1,0-0.1,0-0.2,0c-0.1,0-0.2,0.1-0.2,0.1
				C593.9,63.7,591.1,62,590.6,59.3z M598.3,63.4c0.1,0,0.2,0,0.2,0c0.1,0,0.1-0.1,0.1-0.1c0.5-0.2,1.1,0,1.4,0.5
				c2.2,3.4,2.7,5.9,2.1,9.5c-0.1,0.6-0.6,1-1.1,1c-0.1,0-0.1,0-0.2,0c-0.1,0-0.2,0.1-0.2,0.1c-3.1,0.1-5.9-1.6-6.5-4.3
				C593.6,67.3,595.4,64.5,598.3,63.4z M605.8,83.8c-0.1,0.6-0.6,1-1.1,1c-0.1,0-0.1,0-0.2,0c-0.1,0-0.2,0.1-0.2,0.1
				c-3.1,0.1-5.9-1.6-6.5-4.3c-0.6-2.7,1.2-5.4,4.1-6.6c0.1,0,0.2,0,0.2,0c0.1,0,0.1-0.1,0.1-0.1c0.5-0.2,1.1,0,1.4,0.5
				C605.9,77.7,606.4,80.2,605.8,83.8z M596,29.2c-0.1,0.6-0.6,1-1.1,1c-0.1,0-0.1,0-0.2,0c-0.1,0-0.2,0.1-0.2,0.1
				c-3.1,0.1-5.9-1.6-6.5-4.3c-0.6-2.7,1.2-5.4,4.1-6.6c0.1,0,0.2,0,0.2,0c0.1,0,0.1-0.1,0.1-0.1c0.5-0.2,1.1,0,1.4,0.5
				C596.1,23.1,596.6,25.6,596,29.2z"/>
			<path class="st12" d="M603,90.7c-0.6-2.7,0.8-5.3,3.2-6.4c-0.1,0-0.2,0-0.2,0c-2.9,1.2-4.7,3.9-4.1,6.6c0.4,1.8,1.8,3.1,3.5,3.8
				c0.2-0.1,0.3-0.1,0.5-0.2C604.5,93.8,603.4,92.4,603,90.7z"/>
			<path class="st20" d="M607.8,84.7c-0.3-0.5-0.9-0.7-1.4-0.5c-0.1,0-0.1,0.1-0.1,0.1c-2.4,1.1-3.8,3.7-3.2,6.4
				c0.4,1.7,1.5,3.1,3,3.8c1.4-0.5,2.7-1.1,4.1-1.7C610.3,89.9,609.7,87.7,607.8,84.7z"/>
			<path class="st12" d="M598.9,80.3c-0.6-2.7,0.8-5.3,3.2-6.4c-0.1,0-0.2,0-0.2,0c-2.9,1.2-4.7,3.9-4.1,6.6
				c0.6,2.7,3.3,4.4,6.5,4.3c0.1,0,0.2,0,0.2-0.1C601.9,84.8,599.5,83,598.9,80.3z"/>
			<path class="st20" d="M602.3,73.8c-0.1,0-0.1,0.1-0.1,0.1c-2.4,1.1-3.8,3.7-3.2,6.4c0.6,2.7,3,4.5,5.6,4.4c0.1,0,0.1,0,0.2,0
				c0.6,0,1-0.4,1.1-1c0.6-3.6,0.1-6-2.1-9.5C603.4,73.8,602.8,73.6,602.3,73.8z"/>
			<path class="st12" d="M600.7,74.2c0.1,0,0.2,0,0.2-0.1c-2.6,0-5-1.8-5.6-4.4c-0.6-2.7,0.8-5.3,3.2-6.4c-0.1,0-0.2,0-0.2,0
				c-2.9,1.2-4.7,3.9-4.1,6.6C594.8,72.6,597.5,74.3,600.7,74.2z"/>
			<path class="st20" d="M595.3,69.7c0.6,2.7,3,4.5,5.6,4.4c0.1,0,0.1,0,0.2,0c0.6,0,1-0.4,1.1-1c0.6-3.6,0.1-6-2.1-9.5
				c-0.3-0.5-0.9-0.7-1.4-0.5c-0.1,0-0.1,0.1-0.1,0.1C596.1,64.4,594.7,67,595.3,69.7z"/>
			<path class="st12" d="M597,63.6c0.1,0,0.2,0,0.2-0.1c-2.6,0-5-1.8-5.6-4.4c-0.6-2.7,0.8-5.3,3.2-6.4c-0.1,0-0.2,0-0.2,0
				c-2.9,1.2-4.7,3.9-4.1,6.6C591.1,62,593.9,63.7,597,63.6z"/>
			<path class="st20" d="M591.6,59.1c0.6,2.7,3,4.5,5.6,4.4c0.1,0,0.1,0,0.2,0c0.6,0,1-0.4,1.1-1c0.6-3.6,0.1-6-2.1-9.5
				c-0.3-0.5-0.9-0.7-1.4-0.5c-0.1,0-0.1,0.1-0.1,0.1C592.5,53.8,591.1,56.4,591.6,59.1z"/>
			<path class="st12" d="M590.2,48c-0.6-2.7,0.8-5.3,3.2-6.4c-0.1,0-0.2,0-0.2,0c-2.9,1.2-4.7,3.9-4.1,6.6c0.6,2.7,3.3,4.4,6.5,4.3
				c0.1,0,0.2,0,0.2-0.1C593.2,52.5,590.8,50.7,590.2,48z"/>
			<path class="st20" d="M595,42c-0.3-0.5-0.9-0.7-1.4-0.5c-0.1,0-0.1,0.1-0.1,0.1c-2.4,1.1-3.8,3.7-3.2,6.4c0.6,2.7,3,4.5,5.6,4.4
				c0.1,0,0.1,0,0.2,0c0.6,0,1-0.4,1.1-1C597.7,47.9,597.2,45.4,595,42z"/>
			<path class="st12" d="M589.1,36.9c-0.6-2.7,0.8-5.3,3.2-6.4c-0.1,0-0.2,0-0.2,0c-2.9,1.2-4.7,3.9-4.1,6.6
				c0.6,2.7,3.3,4.4,6.5,4.3c0.1,0,0.2,0,0.2-0.1C592.1,41.3,589.7,39.5,589.1,36.9z"/>
			<path class="st20" d="M596,40.3c0.6-3.6,0.1-6-2.1-9.5c-0.3-0.5-0.9-0.7-1.4-0.5c-0.1,0-0.1,0.1-0.1,0.1
				c-2.4,1.1-3.8,3.7-3.2,6.4c0.6,2.7,3,4.5,5.6,4.4c0.1,0,0.1,0,0.2,0C595.4,41.3,595.9,40.9,596,40.3z"/>
			<path class="st12" d="M589.1,25.7c-0.6-2.7,0.8-5.3,3.2-6.4c-0.1,0-0.2,0-0.2,0c-2.9,1.2-4.7,3.9-4.1,6.6
				c0.6,2.7,3.3,4.4,6.5,4.3c0.1,0,0.2,0,0.2-0.1C592.1,30.2,589.7,28.4,589.1,25.7z"/>
			<path class="st20" d="M592.5,19.2c-0.1,0-0.1,0.1-0.1,0.1c-2.4,1.1-3.8,3.7-3.2,6.4c0.6,2.7,3,4.5,5.6,4.4c0.1,0,0.1,0,0.2,0
				c0.6,0,1-0.4,1.1-1c0.6-3.6,0.1-6-2.1-9.5C593.6,19.2,593,19,592.5,19.2z"/>
			<path class="st12" d="M595.7,19.1c0.1,0,0.2,0,0.2-0.1c-2.6,0-5-1.8-5.6-4.4c-0.2-1.1-0.1-2.2,0.3-3.2c-0.3,0-0.5-0.1-0.8-0.1
				c-0.6,1.1-0.9,2.3-0.6,3.6C589.8,17.5,592.5,19.2,595.7,19.1z"/>
			<path class="st20" d="M595.9,19c0.1,0,0.1,0,0.2,0c0.6,0,1-0.4,1.1-1c0.3-2.1,0.3-3.8-0.2-5.6c-1.9-0.5-4.1-0.9-6.4-1.1
				c-0.4,1-0.5,2.1-0.3,3.2C590.9,17.2,593.3,19,595.9,19z"/>
			<path class="st12" d="M595.6,88.9c-0.1,0-0.2,0-0.2,0c-2.9,1.2-4.7,3.9-4.1,6.6c0.2,1.1,0.9,2.1,1.8,2.8c0.3-0.1,0.6-0.1,0.9-0.2
				c-0.8-0.8-1.4-1.7-1.6-2.9C591.8,92.6,593.2,89.9,595.6,88.9z"/>
			<path class="st20" d="M597.2,89.2c-0.3-0.5-0.9-0.7-1.4-0.5c-0.1,0-0.1,0.1-0.1,0.1c-2.4,1.1-3.8,3.7-3.2,6.4
				c0.3,1.1,0.8,2.1,1.6,2.9c1.8-0.4,3.6-0.9,5.5-1.4C599.6,94.1,598.9,92,597.2,89.2z"/>
			<path class="st12" d="M588.3,84.8c-0.6-2.7,0.8-5.3,3.2-6.4c-0.1,0-0.2,0-0.2,0c-2.9,1.2-4.7,3.9-4.1,6.6
				c0.6,2.7,3.3,4.4,6.5,4.3c0.1,0,0.2,0,0.2-0.1C591.3,89.3,588.9,87.5,588.3,84.8z"/>
			<path class="st20" d="M591.6,78.4c-0.1,0-0.1,0.1-0.1,0.1c-2.4,1.1-3.8,3.7-3.2,6.4c0.6,2.7,3,4.5,5.6,4.4c0.1,0,0.1,0,0.2,0
				c0.6,0,1-0.4,1.1-1c0.6-3.6,0.1-6-2.1-9.5C592.8,78.4,592.2,78.2,591.6,78.4z"/>
			<path class="st12" d="M590,78.7c0.1,0,0.2,0,0.2-0.1c-2.6,0-5-1.8-5.6-4.4c-0.6-2.7,0.8-5.3,3.2-6.4c-0.1,0-0.2,0-0.2,0
				c-2.9,1.2-4.7,3.9-4.1,6.6C584.1,77.1,586.9,78.9,590,78.7z"/>
			<path class="st20" d="M584.6,74.2c0.6,2.7,3,4.5,5.6,4.4c0.1,0,0.1,0,0.2,0c0.6,0,1-0.4,1.1-1c0.6-3.6,0.1-6-2.1-9.5
				c-0.3-0.5-0.9-0.7-1.4-0.5c-0.1,0-0.1,0.1-0.1,0.1C585.5,68.9,584,71.6,584.6,74.2z"/>
			<path class="st12" d="M586.4,68.1c0.1,0,0.2,0,0.2-0.1c-2.6,0-5-1.8-5.6-4.4c-0.6-2.7,0.8-5.3,3.2-6.4c-0.1,0-0.2,0-0.2,0
				c-2.9,1.2-4.7,3.9-4.1,6.6C580.5,66.5,583.2,68.3,586.4,68.1z"/>
			<path class="st20" d="M581,63.6c0.6,2.7,3,4.5,5.6,4.4c0.1,0,0.1,0,0.2,0c0.6,0,1-0.4,1.1-1c0.6-3.6,0.1-6-2.1-9.5
				c-0.3-0.5-0.9-0.7-1.4-0.5c-0.1,0-0.1,0.1-0.1,0.1C581.8,58.3,580.4,61,581,63.6z"/>
			<path class="st12" d="M579.6,52.5c-0.6-2.7,0.8-5.3,3.2-6.4c-0.1,0-0.2,0-0.2,0c-2.9,1.2-4.7,3.9-4.1,6.6
				c0.6,2.7,3.3,4.4,6.5,4.3c0.1,0,0.2,0,0.2-0.1C582.5,57,580.1,55.2,579.6,52.5z"/>
			<path class="st20" d="M582.9,46.1c-0.1,0-0.1,0.1-0.1,0.1c-2.4,1.1-3.8,3.7-3.2,6.4c0.6,2.7,3,4.5,5.6,4.4c0.1,0,0.1,0,0.2,0
				c0.6,0,1-0.4,1.1-1c0.6-3.6,0.1-6-2.1-9.5C584.1,46.1,583.5,45.9,582.9,46.1z"/>
			<path class="st12" d="M583.8,45.9c0.1,0,0.2,0,0.2-0.1c-2.6,0-5-1.8-5.6-4.4c-0.6-2.7,0.8-5.3,3.2-6.4c-0.1,0-0.2,0-0.2,0
				c-2.9,1.2-4.7,3.9-4.1,6.6C577.9,44.3,580.7,46,583.8,45.9z"/>
			<path class="st20" d="M578.4,41.4c0.6,2.7,3,4.5,5.6,4.4c0.1,0,0.1,0,0.2,0c0.6,0,1-0.4,1.1-1c0.6-3.6,0.1-6-2.1-9.5
				c-0.3-0.5-0.9-0.7-1.4-0.5c-0.1,0-0.1,0.1-0.1,0.1C579.3,36.1,577.8,38.7,578.4,41.4z"/>
			<path class="st12" d="M578.5,30.2c-0.6-2.7,0.8-5.3,3.2-6.4c-0.1,0-0.2,0-0.2,0c-2.9,1.2-4.7,3.9-4.1,6.6
				c0.6,2.7,3.3,4.4,6.5,4.3c0.1,0,0.2,0,0.2-0.1C581.4,34.7,579.1,32.9,578.5,30.2z"/>
			<path class="st20" d="M585.4,33.7c0.6-3.6,0.1-6-2.1-9.5c-0.3-0.5-0.9-0.7-1.4-0.5c-0.1,0-0.1,0.1-0.1,0.1
				c-2.4,1.1-3.8,3.7-3.2,6.4c0.6,2.7,3,4.5,5.6,4.4c0.1,0,0.1,0,0.2,0C584.8,34.7,585.3,34.3,585.4,33.7z"/>
			<path class="st12" d="M585,23.6c0.1,0,0.2,0,0.2-0.1c-2.6,0-5-1.8-5.6-4.4c-0.6-2.7,0.8-5.3,3.2-6.4c-0.1,0-0.2,0-0.2,0
				c-2.9,1.2-4.7,3.9-4.1,6.6C579.1,22,581.9,23.7,585,23.6z"/>
			<path class="st20" d="M579.6,19.1c0.6,2.7,3,4.5,5.6,4.4c0.1,0,0.1,0,0.2,0c0.6,0,1-0.4,1.1-1c0.6-3.6,0.1-6-2.1-9.5
				c-0.3-0.5-0.9-0.7-1.4-0.5c-0.1,0-0.1,0.1-0.1,0.1C580.5,13.8,579.1,16.4,579.6,19.1z"/>
			<path class="st12" d="M587.4,12.7c0.1,0,0.2,0,0.2-0.1c-1.5,0-2.8-0.5-3.9-1.5c-0.4,0-0.7,0-1.1,0.1
				C583.9,12.2,585.6,12.8,587.4,12.7z"/>
			<path class="st20" d="M587.7,12.6c0.1,0,0.1,0,0.2,0c0.6,0,1-0.4,1.1-1c0-0.2,0-0.3,0.1-0.4c-1.7-0.1-3.4-0.1-5.2-0.1
				C584.8,12.1,586.2,12.6,587.7,12.6z"/>
			<path class="st12" d="M585.6,90.3c-0.1,0-0.2,0-0.2,0c-2.9,1.2-4.7,3.9-4.1,6.6c0.3,1.1,0.9,2.1,1.8,2.8c0.3,0,0.7-0.1,1-0.1
				c-0.8-0.8-1.5-1.8-1.7-3C581.8,94,583.2,91.4,585.6,90.3z"/>
			<path class="st20" d="M587.2,90.7c-0.3-0.5-0.9-0.7-1.4-0.5c-0.1,0-0.1,0.1-0.1,0.1c-2.4,1.1-3.8,3.7-3.2,6.4
				c0.3,1.2,0.9,2.2,1.7,3c1.8-0.2,3.5-0.4,5.3-0.7C589.7,96,589.1,93.7,587.2,90.7z"/>
			<path class="st12" d="M578.3,86.3c-0.6-2.7,0.8-5.3,3.2-6.4c-0.1,0-0.2,0-0.2,0c-2.9,1.2-4.7,3.9-4.1,6.6
				c0.6,2.7,3.3,4.4,6.5,4.3c0.1,0,0.2,0,0.2-0.1C581.3,90.8,578.9,89,578.3,86.3z"/>
			<path class="st20" d="M581.7,79.8c-0.1,0-0.1,0.1-0.1,0.1c-2.4,1.1-3.8,3.7-3.2,6.4c0.6,2.7,3,4.5,5.6,4.4c0.1,0,0.1,0,0.2,0
				c0.6,0,1-0.4,1.1-1c0.6-3.6,0.1-6-2.1-9.5C582.8,79.8,582.2,79.6,581.7,79.8z"/>
			<path class="st12" d="M580,80.2c0.1,0,0.2,0,0.2-0.1c-2.6,0-5-1.8-5.6-4.4c-0.6-2.7,0.8-5.3,3.2-6.4c-0.1,0-0.2,0-0.2,0
				c-2.9,1.2-4.7,3.9-4.1,6.6C574.2,78.6,576.9,80.3,580,80.2z"/>
			<path class="st20" d="M574.7,75.7c0.6,2.7,3,4.5,5.6,4.4c0.1,0,0.1,0,0.2,0c0.6,0,1-0.4,1.1-1c0.6-3.6,0.1-6-2.1-9.5
				c-0.3-0.5-0.9-0.7-1.4-0.5c-0.1,0-0.1,0.1-0.1,0.1C575.5,70.4,574.1,73,574.7,75.7z"/>
			<path class="st12" d="M576.4,69.6c0.1,0,0.2,0,0.2-0.1c-2.6,0-5-1.8-5.6-4.4c-0.6-2.7,0.8-5.3,3.2-6.4c-0.1,0-0.2,0-0.2,0
				c-2.9,1.2-4.7,3.9-4.1,6.6C570.5,68,573.3,69.7,576.4,69.6z"/>
			<path class="st20" d="M571,65.1c0.6,2.7,3,4.5,5.6,4.4c0.1,0,0.1,0,0.2,0c0.6,0,1-0.4,1.1-1c0.6-3.6,0.1-6-2.1-9.5
				c-0.3-0.5-0.9-0.7-1.4-0.5c-0.1,0-0.1,0.1-0.1,0.1C571.8,59.8,570.4,62.4,571,65.1z"/>
			<path class="st12" d="M569.6,54c-0.6-2.7,0.8-5.3,3.2-6.4c-0.1,0-0.2,0-0.2,0c-2.9,1.2-4.7,3.9-4.1,6.6c0.6,2.7,3.3,4.4,6.5,4.3
				c0.1,0,0.2,0,0.2-0.1C572.5,58.5,570.2,56.7,569.6,54z"/>
			<path class="st20" d="M572.9,47.5c-0.1,0-0.1,0.1-0.1,0.1c-2.4,1.1-3.8,3.7-3.2,6.4c0.6,2.7,3,4.5,5.6,4.4c0.1,0,0.1,0,0.2,0
				c0.6,0,1-0.4,1.1-1c0.6-3.6,0.1-6-2.1-9.5C574.1,47.5,573.5,47.3,572.9,47.5z"/>
			<path class="st12" d="M568.5,42.9c-0.6-2.7,0.8-5.3,3.2-6.4c-0.1,0-0.2,0-0.2,0c-2.9,1.2-4.7,3.9-4.1,6.6
				c0.6,2.7,3.3,4.4,6.5,4.3c0.1,0,0.2,0,0.2-0.1C571.4,47.3,569,45.5,568.5,42.9z"/>
			<path class="st20" d="M575.4,46.3c0.6-3.6,0.1-6-2.1-9.5c-0.3-0.5-0.9-0.7-1.4-0.5c-0.1,0-0.1,0.1-0.1,0.1
				c-2.4,1.1-3.8,3.7-3.2,6.4c0.6,2.7,3,4.5,5.6,4.4c0.1,0,0.1,0,0.2,0C574.8,47.3,575.3,46.9,575.4,46.3z"/>
			<path class="st12" d="M573.9,36.2c0.1,0,0.2,0,0.2-0.1c-2.6,0-5-1.8-5.6-4.4c-0.6-2.7,0.8-5.3,3.2-6.4c-0.1,0-0.2,0-0.2,0
				c-2.2,0.9-3.7,2.6-4.1,4.6c0.1,0.8,0.2,1.6,0.2,2.5C568.3,34.8,570.9,36.3,573.9,36.2z"/>
			<path class="st20" d="M568.5,31.7c0.6,2.7,3,4.5,5.6,4.4c0.1,0,0.1,0,0.2,0c0.6,0,1-0.4,1.1-1c0.6-3.6,0.1-6-2.1-9.5
				c-0.3-0.5-0.9-0.7-1.4-0.5c-0.1,0-0.1,0.1-0.1,0.1C569.3,26.4,567.9,29,568.5,31.7z"/>
			<path class="st12" d="M569.4,22.7c1.2,1.6,3.3,2.5,5.6,2.4c0.1,0,0.2,0,0.2-0.1c-2.6,0-5-1.8-5.6-4.4c-0.6-2.7,0.8-5.3,3.2-6.4
				c-0.1,0-0.2,0-0.2,0c-1.7,0.7-2.9,1.9-3.6,3.3C569.6,19.1,569.7,20.7,569.4,22.7z"/>
			<path class="st20" d="M569.7,20.6c0.6,2.7,3,4.5,5.6,4.4c0.1,0,0.1,0,0.2,0c0.6,0,1-0.4,1.1-1c0.6-3.6,0.1-6-2.1-9.5
				c-0.3-0.5-0.9-0.7-1.4-0.5c-0.1,0-0.1,0.1-0.1,0.1C570.5,15.2,569.1,17.9,569.7,20.6z"/>
			<path class="st12" d="M577.5,14.1c0.1,0,0.2,0,0.2-0.1c-1.4,0-2.7-0.5-3.8-1.4c-0.3,0.1-0.5,0.2-0.8,0.2
				C574.3,13.8,575.8,14.2,577.5,14.1z"/>
			<path class="st20" d="M577.7,14.1c0.1,0,0.1,0,0.2,0c0.6,0,1-0.4,1.1-1c0.1-0.5,0.1-1,0.2-1.5c-1.3,0.2-2.7,0.5-4.1,0.8
				c-0.4,0.1-0.7,0.2-1.1,0.3C575,13.6,576.3,14.1,577.7,14.1z"/>
			<path class="st12" d="M578.8,99.8c-0.2,0.1-0.3,0.2-0.5,0.3c0.1,0,0.1,0,0.2,0c0.2-0.1,0.3-0.2,0.5-0.3
				C578.9,99.8,578.8,99.8,578.8,99.8z"/>
			<path class="st20" d="M579.1,99.7c-0.1,0-0.1,0.1-0.1,0.1c-0.2,0.1-0.4,0.2-0.5,0.3c0.7,0,1.3-0.1,2-0.1
				C580.1,99.6,579.6,99.5,579.1,99.7z"/>
			<path class="st12" d="M571.6,96.1c-0.7-2.6,0.6-5.3,3-6.5c-0.1,0-0.2,0-0.2,0c-2.8,1.3-4.5,4.1-3.8,6.7c0.5,2,2.2,3.4,4.4,3.9
				c0.4,0,0.8,0,1.2,0C573.9,99.8,572.1,98.2,571.6,96.1z"/>
			<path class="st20" d="M578.6,99.2c0.4-3.6-0.1-6-2.5-9.4c-0.3-0.5-0.9-0.6-1.5-0.4c-0.1,0-0.1,0.1-0.1,0.1
				c-2.4,1.2-3.7,3.9-3,6.5c0.6,2.2,2.4,3.7,4.4,4.1c0.7,0,1.3,0,2-0.1C578.3,99.9,578.6,99.6,578.6,99.2z"/>
			<path class="st12" d="M567.5,85.6c-0.7-2.6,0.6-5.3,3-6.5c-0.1,0-0.2,0-0.2,0c-2.8,1.3-4.5,4.1-3.8,6.7c0.7,2.6,3.5,4.3,6.6,4
				c0.1,0,0.2,0,0.2-0.1C570.7,90,568.2,88.3,567.5,85.6z"/>
			<path class="st20" d="M570.6,79c-0.1,0-0.1,0.1-0.1,0.1c-2.4,1.2-3.7,3.9-3,6.5c0.7,2.6,3.1,4.4,5.8,4.2c0.1,0,0.1,0,0.2,0
				c0.6,0,1-0.5,1.1-1c0.4-3.6-0.1-6-2.5-9.4C571.8,78.9,571.2,78.8,570.6,79z"/>
			<path class="st12" d="M569.2,79.4c-2.6,0.1-5.1-1.6-5.8-4.2c-0.7-2.6,0.6-5.3,3-6.5c-0.1,0-0.2,0-0.2,0c-2.8,1.3-4.5,4.1-3.8,6.7
				c0.7,2.6,3.5,4.3,6.6,4C569.1,79.4,569.2,79.4,569.2,79.4z"/>
			<path class="st20" d="M563.5,75.1c0.7,2.6,3.1,4.4,5.8,4.2c0.1,0,0.1,0,0.2,0c0.6,0,1-0.5,1.1-1c0.4-3.6-0.2-6-2.5-9.4
				c-0.3-0.5-0.9-0.6-1.5-0.4c-0.1,0-0.1,0.1-0.1,0.1C564.1,69.8,562.8,72.5,563.5,75.1z"/>
			<path class="st12" d="M561.6,64.1c-0.7-2.6,0.6-5.3,3-6.5c-0.1,0-0.2,0-0.2,0c-2.8,1.3-4.5,4.1-3.8,6.7c0.7,2.6,3.5,4.3,6.6,4
				c0.1,0,0.2,0,0.2-0.1C564.7,68.5,562.3,66.8,561.6,64.1z"/>
			<path class="st20" d="M564.7,57.5c-0.1,0-0.1,0.1-0.1,0.1c-2.4,1.2-3.7,3.9-3,6.5c0.7,2.6,3.1,4.4,5.8,4.2c0.1,0,0.1,0,0.2,0
				c0.6,0,1-0.5,1.1-1c0.4-3.6-0.1-6-2.5-9.4C565.8,57.5,565.2,57.3,564.7,57.5z"/>
			<path class="st12" d="M560,53c-0.7-2.6,0.6-5.3,3-6.5c-0.1,0-0.2,0-0.2,0c-2.8,1.3-4.5,4.1-3.8,6.7c0.7,2.6,3.5,4.3,6.6,4
				c0.1,0,0.2,0,0.2-0.1C563.2,57.4,560.7,55.7,560,53z"/>
			<path class="st20" d="M564.6,46.8c-0.3-0.5-0.9-0.6-1.5-0.4c-0.1,0-0.1,0.1-0.1,0.1c-2.4,1.2-3.7,3.9-3,6.5
				c0.7,2.6,3.1,4.4,5.8,4.2c0.1,0,0.1,0,0.2,0c0.6,0,1-0.5,1.1-1C567.5,52.6,566.9,50.2,564.6,46.8z"/>
			<path class="st12" d="M565.2,46.2c0.1,0,0.2,0,0.2-0.1c-2.6,0.1-5.1-1.6-5.8-4.2c-0.7-2.6,0.6-5.3,3-6.5c-0.1,0-0.2,0-0.2,0
				c-2.8,1.3-4.5,4.1-3.8,6.7C559.3,44.8,562.1,46.4,565.2,46.2z"/>
			<path class="st20" d="M559.6,41.9c0.7,2.6,3.1,4.4,5.8,4.2c0.1,0,0.1,0,0.2,0c0.6,0,1-0.5,1.1-1c0.4-3.6-0.2-6-2.5-9.4
				c-0.3-0.5-0.9-0.6-1.5-0.4c-0.1,0-0.1,0.1-0.1,0.1C560.3,36.5,559,39.2,559.6,41.9z"/>
			<path class="st12" d="M565.9,35c0.1,0,0.2,0,0.2-0.1c-2.6,0.1-5.1-1.6-5.8-4.2c-0.7-2.6,0.6-5.3,3-6.5c-0.1,0-0.2,0-0.2,0
				c-2.8,1.3-4.5,4.1-3.8,6.7C560,33.6,562.8,35.3,565.9,35z"/>
			<path class="st20" d="M560.4,30.7c0.7,2.6,3.1,4.4,5.8,4.2c0.1,0,0.1,0,0.2,0c0.6,0,1-0.5,1.1-1c0.1-0.5,0.1-1,0.1-1.5
				c0-0.9,0-1.7-0.2-2.5c-0.3-1.8-1.1-3.4-2.4-5.4c-0.3-0.5-0.9-0.6-1.5-0.4c-0.1,0-0.1,0.1-0.1,0.1C561,25.4,559.7,28.1,560.4,30.7
				z"/>
			<path class="st12" d="M561.2,19.3c0,0.2,0,0.4,0.1,0.6c0.7,2.6,3.5,4.3,6.6,4c0.1,0,0.2,0,0.2-0.1c-2.6,0.1-5.1-1.6-5.8-4.2
				c-0.2-0.6-0.2-1.2-0.2-1.8c-0.2,0.1-0.3,0.2-0.5,0.3c0,0.1,0,0.2,0,0.3C561.7,18.8,561.5,19.1,561.2,19.3z"/>
			<path class="st20" d="M568.2,23.9c0.1,0,0.1,0,0.2,0c0.6,0,1-0.5,1.1-1c0-0.1,0-0.1,0-0.2c0.2-1.9,0.1-3.6-0.4-5.2
				c-0.3-0.8-0.6-1.6-1.1-2.5c-1.8,0.8-3.7,1.8-5.7,2.9c0,0.6,0,1.2,0.2,1.8C563.1,22.4,565.5,24.1,568.2,23.9z"/>
			<path class="st12" d="M566.4,95.7c-0.1,0-0.2,0-0.2,0.1c-1.8,0.9-3,2.4-3.5,4c0.3,0,0.6,0,0.9,0.1
				C563.8,98.1,564.8,96.6,566.4,95.7z"/>
			<path class="st20" d="M566.6,95.7c0,0-0.1,0.1-0.1,0.1c-1.6,0.9-2.6,2.4-2.9,4.1c2.2,0.2,4.5,0.3,6.8,0.3
				c-0.4-1.3-1.2-2.7-2.3-4.2C567.7,95.6,567.1,95.4,566.6,95.7z"/>
			<path class="st12" d="M559.3,92.1c-0.8-2.6,0.4-5.4,2.7-6.6c-0.1,0-0.2,0-0.2,0.1c-2.8,1.4-4.4,4.2-3.6,6.9s3.7,4.1,6.8,3.8
				c0.1,0,0.2-0.1,0.2-0.1C562.6,96.3,560,94.7,559.3,92.1z"/>
			<path class="st20" d="M562.1,85.4c0,0-0.1,0.1-0.1,0.1c-2.3,1.3-3.5,4-2.7,6.6c0.8,2.6,3.3,4.2,5.9,4c0.1,0,0.1,0,0.2,0
				c0.6-0.1,1-0.5,1-1.1c0.3-3.6-0.4-6-2.8-9.3C563.3,85.3,562.6,85.1,562.1,85.4z"/>
			<path class="st12" d="M560.8,85.8c-2.6,0.2-5.1-1.4-5.9-4c-0.8-2.6,0.4-5.4,2.7-6.6c-0.1,0-0.2,0-0.2,0.1
				c-2.8,1.4-4.4,4.2-3.6,6.9c0.8,2.6,3.7,4.1,6.8,3.8C560.6,85.8,560.7,85.8,560.8,85.8z"/>
			<path class="st20" d="M554.8,81.8c0.8,2.6,3.3,4.2,5.9,4c0.1,0,0.1,0,0.2,0c0.6-0.1,1-0.5,1-1.1c0.3-3.6-0.4-6-2.8-9.3
				c-0.3-0.5-1-0.6-1.5-0.4c0,0-0.1,0.1-0.1,0.1C555.2,76.4,554,79.1,554.8,81.8z"/>
			<path class="st12" d="M552.6,70.8c-0.8-2.6,0.4-5.4,2.7-6.6c-0.1,0-0.2,0-0.2,0.1c-2.8,1.4-4.4,4.2-3.6,6.9
				c0.8,2.6,3.7,4.1,6.8,3.8c0.1,0,0.2-0.1,0.2-0.1C555.9,75.1,553.3,73.4,552.6,70.8z"/>
			<path class="st20" d="M555.4,64.1c0,0-0.1,0.1-0.1,0.1c-2.3,1.3-3.5,4-2.7,6.6c0.8,2.6,3.3,4.2,5.9,4c0.1,0,0.1,0,0.2,0
				c0.6-0.1,1-0.5,1-1.1c0.3-3.6-0.4-6-2.8-9.3C556.6,64,555.9,63.9,555.4,64.1z"/>
			<path class="st12" d="M556.3,63.9c0.1,0,0.2-0.1,0.2-0.1c-2.6,0.2-5.1-1.4-5.9-4c-0.8-2.6,0.4-5.4,2.7-6.6c-0.1,0-0.2,0-0.2,0.1
				c-2.8,1.4-4.4,4.2-3.6,6.9C550.3,62.7,553.2,64.2,556.3,63.9z"/>
			<path class="st20" d="M550.6,59.8c0.8,2.6,3.3,4.2,5.9,4c0.1,0,0.1,0,0.2,0c0.6-0.1,1-0.5,1-1.1c0.3-3.6-0.4-6-2.8-9.3
				c-0.3-0.5-1-0.6-1.5-0.4c0,0-0.1,0.1-0.1,0.1C551,54.4,549.8,57.2,550.6,59.8z"/>
			<path class="st12" d="M555.5,52.7c0.1,0,0.2-0.1,0.2-0.1c-2.6,0.2-5.1-1.4-5.9-4c-0.8-2.6,0.4-5.4,2.7-6.6c-0.1,0-0.2,0-0.2,0.1
				c-2.8,1.4-4.4,4.2-3.6,6.9S552.4,53.1,555.5,52.7z"/>
			<path class="st20" d="M549.8,48.7c0.8,2.6,3.3,4.2,5.9,4c0.1,0,0.1,0,0.2,0c0.6-0.1,1-0.5,1-1.1c0.3-3.6-0.4-6-2.8-9.3
				c-0.3-0.5-1-0.6-1.5-0.3c0,0-0.1,0.1-0.1,0.1C550.2,43.3,549,46,549.8,48.7z"/>
			<path class="st12" d="M555.8,41.5c0.1,0,0.2-0.1,0.2-0.1c-2.6,0.2-5.1-1.4-5.9-4c-0.8-2.6,0.4-5.4,2.7-6.6c-0.1,0-0.2,0-0.2,0.1
				c-2.8,1.4-4.4,4.2-3.6,6.9C549.9,40.4,552.7,41.9,555.8,41.5z"/>
			<path class="st20" d="M550.1,37.5c0.8,2.6,3.3,4.2,5.9,4c0.1,0,0.1,0,0.2,0c0.6-0.1,1-0.5,1-1.1c0.3-3.6-0.4-6-2.8-9.3
				c-0.3-0.5-1-0.6-1.5-0.3c0,0-0.1,0.1-0.1,0.1C550.6,32.1,549.3,34.8,550.1,37.5z"/>
			<path class="st12" d="M557.4,30.5c0.1,0,0.2-0.1,0.2-0.1c-2.6,0.2-5.1-1.4-5.9-4c-0.2-0.5-0.2-1.1-0.2-1.6
				c-0.3,0.2-0.7,0.5-1,0.7c0,0.4,0.1,0.8,0.2,1.2C551.5,29.3,554.3,30.9,557.4,30.5z"/>
			<path class="st20" d="M557.7,30.4c0.1,0,0.1,0,0.2,0c0.6-0.1,1-0.5,1-1.1c0.3-3.2-0.2-5.5-2-8.2c-1.8,1.1-3.5,2.3-5.3,3.6
				c0,0.5,0.1,1.1,0.2,1.6C552.5,29,555,30.6,557.7,30.4z"/>
			<path class="st12" d="M560.5,19.6c-0.4,0-0.8,0-1.1,0c-0.1,0-0.2,0.1-0.2,0.2c0.4,0,0.8,0,1.2-0.1
				C560.3,19.6,560.4,19.6,560.5,19.6z"/>
			<path class="st20" d="M560.7,19.6c0.2,0,0.4-0.1,0.5-0.2c0.3-0.2,0.5-0.5,0.5-0.8c0-0.1,0-0.2,0-0.3c-0.8,0.4-1.6,0.9-2.4,1.4
				c0.4,0,0.8,0.1,1.1,0C560.6,19.6,560.6,19.6,560.7,19.6z"/>
			<path class="st12" d="M555.6,93c-0.1,0-0.2,0-0.2,0.1c-2.4,1.1-3.9,3.3-3.8,5.6c0.4,0.1,0.7,0.1,1.1,0.2
				C552.3,96.4,553.5,94.1,555.6,93z"/>
			<path class="st20" d="M557.2,93.3c-0.3-0.5-1-0.6-1.5-0.4c-0.1,0-0.1,0.1-0.1,0.1c-2.1,1.1-3.3,3.4-3,5.8
				c0.4,0.1,0.8,0.1,1.2,0.2c1.9,0.2,3.9,0.4,6,0.6C559.7,97.4,558.9,95.6,557.2,93.3z"/>
			<path class="st12" d="M548.5,89.2c-0.8-2.6,0.5-5.3,2.8-6.6c-0.1,0-0.2,0-0.2,0.1c-2.8,1.4-4.4,4.2-3.7,6.8
				c0.8,2.6,3.6,4.2,6.7,3.9c0.1,0,0.2-0.1,0.2-0.1C551.7,93.5,549.2,91.8,548.5,89.2z"/>
			<path class="st20" d="M551.4,82.6c-0.1,0-0.1,0.1-0.1,0.1c-2.3,1.2-3.6,3.9-2.8,6.6c0.8,2.6,3.2,4.3,5.9,4.1c0.1,0,0.1,0,0.2,0
				c0.6-0.1,1-0.5,1-1.1c0.4-3.6-0.3-6-2.7-9.3C552.6,82.5,552,82.3,551.4,82.6z"/>
			<path class="st12" d="M550.1,82.9c-2.6,0.2-5.1-1.5-5.9-4.1c-0.8-2.6,0.5-5.3,2.8-6.6c-0.1,0-0.2,0-0.2,0.1
				c-2.8,1.4-4.4,4.2-3.7,6.8c0.8,2.6,3.6,4.2,6.7,3.9C549.9,83,550,83,550.1,82.9z"/>
			<path class="st20" d="M544.2,78.8c0.8,2.6,3.2,4.3,5.9,4.1c0.1,0,0.1,0,0.2,0c0.6-0.1,1-0.5,1-1.1c0.4-3.6-0.3-6-2.7-9.3
				c-0.3-0.5-1-0.6-1.5-0.4c-0.1,0-0.1,0.1-0.1,0.1C544.7,73.5,543.4,76.2,544.2,78.8z"/>
			<path class="st12" d="M547.7,72c0.1,0,0.2-0.1,0.2-0.1c-2.6,0.2-5.1-1.5-5.9-4.1c-0.8-2.6,0.5-5.3,2.8-6.6c-0.1,0-0.2,0-0.2,0.1
				c-2.8,1.4-4.4,4.2-3.7,6.8C541.8,70.8,544.6,72.4,547.7,72z"/>
			<path class="st20" d="M542.1,67.9c0.8,2.6,3.2,4.3,5.9,4.1c0.1,0,0.1,0,0.2,0c0.6-0.1,1-0.5,1-1.1c0.4-3.6-0.3-6-2.7-9.3
				c-0.3-0.5-1-0.6-1.5-0.4c-0.1,0-0.1,0.1-0.1,0.1C542.6,62.5,541.3,65.2,542.1,67.9z"/>
			<path class="st12" d="M545.9,61c0.1,0,0.2-0.1,0.2-0.1c-2.6,0.2-5.1-1.5-5.9-4.1c-0.8-2.6,0.5-5.3,2.8-6.6c-0.1,0-0.2,0-0.2,0.1
				c-2.8,1.4-4.4,4.2-3.7,6.8C539.9,59.7,542.8,61.3,545.9,61z"/>
			<path class="st20" d="M540.3,56.8c0.8,2.6,3.2,4.3,5.9,4.1c0.1,0,0.1,0,0.2,0c0.6-0.1,1-0.5,1-1.1c0.4-3.6-0.3-6-2.7-9.3
				c-0.3-0.5-1-0.6-1.5-0.4c-0.1,0-0.1,0.1-0.1,0.1C540.8,51.5,539.5,54.2,540.3,56.8z"/>
			<path class="st12" d="M545.2,49.8c0.1,0,0.2-0.1,0.2-0.1c-2.6,0.2-5.1-1.5-5.9-4.1c-0.8-2.6,0.5-5.3,2.8-6.6
				c-0.1,0-0.2,0-0.2,0.1c-2.8,1.4-4.4,4.2-3.7,6.8C539.3,48.6,542.1,50.2,545.2,49.8z"/>
			<path class="st20" d="M539.6,45.7c0.8,2.6,3.2,4.3,5.9,4.1c0.1,0,0.1,0,0.2,0c0.6-0.1,1-0.5,1-1.1c0.4-3.6-0.3-6-2.7-9.3
				c-0.3-0.5-1-0.6-1.5-0.4c-0.1,0-0.1,0.1-0.1,0.1C540.1,40.3,538.9,43,539.6,45.7z"/>
			<path class="st12" d="M545.7,38.6c0.1,0,0.2-0.1,0.2-0.1c-2.6,0.2-5.1-1.5-5.9-4.1c-0.1-0.3-0.1-0.5-0.2-0.8
				c-0.3,0.3-0.6,0.5-1,0.8c0,0.1,0,0.2,0.1,0.3C539.8,37.4,542.6,39,545.7,38.6z"/>
			<path class="st20" d="M546,38.6c0.1,0,0.1,0,0.2,0c0.6-0.1,1-0.5,1-1.1c0.3-3.2-0.1-5.4-1.9-8.1c-1.8,1.4-3.6,2.8-5.4,4.3
				c0,0.3,0.1,0.5,0.2,0.8C540.8,37.1,543.3,38.8,546,38.6z"/>
			<path class="st20" d="M548.9,26.6c-0.4,0.3-0.8,0.6-1.2,0.9c0.1,0,0.1,0,0.2,0C548.4,27.5,548.8,27.1,548.9,26.6z"/>
			<path class="st12" d="M546,93.6c-0.1,0-0.2,0-0.2,0.1c-1.4,0.7-2.5,1.7-3.2,2.9c0.2,0.1,0.5,0.1,0.7,0.2
				C543.7,95.5,544.7,94.3,546,93.6z"/>
			<path class="st20" d="M546.1,93.6c-0.1,0-0.1,0.1-0.1,0.1c-1.3,0.7-2.2,1.8-2.7,3.2c2.2,0.6,4.4,1.1,6.6,1.5
				c-0.4-1.4-1.2-2.8-2.3-4.4C547.3,93.5,546.6,93.3,546.1,93.6z"/>
			<path class="st12" d="M538.9,89.9c-0.8-2.6,0.5-5.3,2.8-6.6c-0.1,0-0.2,0-0.2,0.1c-2.8,1.4-4.4,4.2-3.7,6.8
				c0.8,2.6,3.6,4.2,6.7,3.9c0.1,0,0.2-0.1,0.2-0.1C542.1,94.1,539.6,92.5,538.9,89.9z"/>
			<path class="st20" d="M541.8,83.2c-0.1,0-0.1,0.1-0.1,0.1c-2.3,1.2-3.6,3.9-2.8,6.6c0.8,2.6,3.2,4.3,5.9,4.1c0.1,0,0.1,0,0.2,0
				c0.6-0.1,1-0.5,1-1.1c0.4-3.6-0.3-6-2.7-9.3C543,83.1,542.3,83,541.8,83.2z"/>
			<path class="st12" d="M540.5,83.6c-2.6,0.2-5.1-1.5-5.9-4.1c-0.8-2.6,0.5-5.3,2.8-6.6c-0.1,0-0.2,0-0.2,0.1
				c-2.8,1.4-4.4,4.2-3.7,6.8c0.8,2.6,3.6,4.2,6.7,3.9C540.3,83.7,540.4,83.6,540.5,83.6z"/>
			<path class="st20" d="M534.6,79.5c0.8,2.6,3.2,4.3,5.9,4.1c0.1,0,0.1,0,0.2,0c0.6-0.1,1-0.5,1-1.1c0.4-3.6-0.3-6-2.7-9.3
				c-0.3-0.5-1-0.6-1.5-0.4c-0.1,0-0.1,0.1-0.1,0.1C535.1,74.2,533.8,76.9,534.6,79.5z"/>
			<path class="st12" d="M538.1,72.7c0.1,0,0.2-0.1,0.2-0.1c-2.6,0.2-5.1-1.5-5.9-4.1c-0.8-2.6,0.5-5.3,2.8-6.6
				c-0.1,0-0.2,0-0.2,0.1c-2.8,1.4-4.4,4.2-3.7,6.8C532.1,71.5,535,73,538.1,72.7z"/>
			<path class="st20" d="M532.5,68.5c0.8,2.6,3.2,4.3,5.9,4.1c0.1,0,0.1,0,0.2,0c0.6-0.1,1-0.5,1-1.1c0.4-3.6-0.3-6-2.7-9.3
				c-0.3-0.5-1-0.6-1.5-0.4c-0.1,0-0.1,0.1-0.1,0.1C532.9,63.2,531.7,65.9,532.5,68.5z"/>
			<path class="st12" d="M536.3,61.6c0.1,0,0.2-0.1,0.2-0.1c-2.6,0.2-5.1-1.5-5.9-4.1c-0.8-2.6,0.5-5.3,2.8-6.6
				c-0.1,0-0.2,0-0.2,0.1c-2.8,1.4-4.4,4.2-3.7,6.8C530.3,60.4,533.2,62,536.3,61.6z"/>
			<path class="st20" d="M530.6,57.5c0.8,2.6,3.2,4.3,5.9,4.1c0.1,0,0.1,0,0.2,0c0.6-0.1,1-0.5,1-1.1c0.4-3.6-0.3-6-2.7-9.3
				c-0.3-0.5-1-0.6-1.5-0.4c-0.1,0-0.1,0.1-0.1,0.1C531.1,52.1,529.9,54.8,530.6,57.5z"/>
			<path class="st12" d="M535.6,50.5c0.1,0,0.2-0.1,0.2-0.1c-2.6,0.2-5.1-1.5-5.9-4.1c-0.5-1.7-0.2-3.3,0.7-4.7
				c-0.5,0.4-0.9,0.8-1.4,1.2c-0.6,1.2-0.8,2.5-0.4,3.7C529.7,49.3,532.5,50.8,535.6,50.5z"/>
			<path class="st20" d="M535.9,50.4c0.1,0,0.1,0,0.2,0c0.6-0.1,1-0.5,1-1.1c0.4-3.6-0.3-6-2.7-9.3c-0.3-0.5-1-0.6-1.5-0.4
				c0,0,0,0-0.1,0c-0.7,0.6-1.5,1.3-2.2,1.9c-0.9,1.3-1.2,3-0.7,4.7C530.7,49,533.2,50.6,535.9,50.4z"/>
			<path class="st12" d="M536.4,39.2c-0.9,0.1-1.7-0.1-2.5-0.4c-0.1,0.1-0.2,0.2-0.3,0.3c0.8,0.2,1.7,0.3,2.6,0.2
				C536.2,39.3,536.3,39.2,536.4,39.2z"/>
			<path class="st20" d="M536.5,39.2c0.6-0.1,1-0.5,1-1.1c0.1-0.9,0.1-1.8,0.1-2.6c-1.3,1.1-2.5,2.2-3.8,3.3
				c0.8,0.3,1.6,0.4,2.5,0.4C536.4,39.2,536.5,39.2,536.5,39.2z"/>
			<path class="st12" d="M531.9,85.4c-0.1,0-0.2,0-0.2,0.1c-2.4,1.1-3.8,3.3-3.8,5.5c0.4,0.2,0.8,0.3,1.1,0.5
				C528.5,89.1,529.7,86.6,531.9,85.4z"/>
			<path class="st20" d="M533.5,85.7c-0.3-0.5-1-0.6-1.5-0.4c-0.1,0-0.1,0.1-0.1,0.1c-2.2,1.1-3.4,3.6-2.9,6.1c2.3,1,4.7,2,7.2,3
				C536.5,91.2,535.8,88.8,533.5,85.7z"/>
			<path class="st12" d="M524.8,81.7c-0.8-2.6,0.5-5.3,2.8-6.6c-0.1,0-0.2,0-0.2,0.1c-2.8,1.4-4.4,4.2-3.7,6.8
				c0.8,2.6,3.6,4.2,6.7,3.9c0.1,0,0.2-0.1,0.2-0.1C528,85.9,525.5,84.3,524.8,81.7z"/>
			<path class="st20" d="M527.8,75c-0.1,0-0.1,0.1-0.1,0.1c-2.3,1.2-3.6,3.9-2.8,6.6c0.8,2.6,3.2,4.3,5.9,4.1c0.1,0,0.1,0,0.2,0
				c0.6-0.1,1-0.5,1-1.1c0.4-3.6-0.3-6-2.7-9.3C528.9,74.9,528.3,74.8,527.8,75z"/>
			<path class="st12" d="M522.7,70.7c-0.8-2.6,0.5-5.3,2.8-6.6c-0.1,0-0.2,0-0.2,0.1c-2.8,1.4-4.4,4.2-3.7,6.8
				c0.8,2.6,3.6,4.2,6.7,3.9c0.1,0,0.2-0.1,0.2-0.1C525.9,75,523.4,73.3,522.7,70.7z"/>
			<path class="st20" d="M525.6,64c-0.1,0-0.1,0.1-0.1,0.1c-2.3,1.2-3.6,3.9-2.8,6.6c0.8,2.6,3.2,4.3,5.9,4.1c0.1,0,0.1,0,0.2,0
				c0.6-0.1,1-0.5,1-1.1c0.4-3.6-0.3-6-2.7-9.3C526.8,63.9,526.1,63.8,525.6,64z"/>
			<path class="st12" d="M520.9,59.6c-0.8-2.6,0.5-5.3,2.8-6.6c-0.1,0-0.2,0-0.2,0.1c-2.8,1.4-4.4,4.2-3.7,6.8
				c0.8,2.6,3.6,4.2,6.7,3.9c0.1,0,0.2-0.1,0.2-0.1C524.1,63.9,521.6,62.3,520.9,59.6z"/>
			<path class="st20" d="M523.8,53c-0.1,0-0.1,0.1-0.1,0.1c-2.3,1.2-3.6,3.9-2.8,6.6c0.8,2.6,3.2,4.3,5.9,4.1c0.1,0,0.1,0,0.2,0
				c0.6-0.1,1-0.5,1-1.1c0.4-3.6-0.3-6-2.7-9.3C525,52.9,524.3,52.7,523.8,53z"/>
			<path class="st12" d="M525.8,52.7c0.1,0,0.2-0.1,0.2-0.1c-1.9,0.1-3.7-0.7-4.8-2.1c-0.2,0.2-0.4,0.4-0.6,0.6
				C521.9,52.3,523.8,52.9,525.8,52.7z"/>
			<path class="st20" d="M526.1,52.6c0.1,0,0.1,0,0.2,0c0.6-0.1,1-0.5,1-1.1c0.2-2.3,0-4.1-0.8-6c-1.8,1.7-3.6,3.3-5.3,5
				C522.4,51.9,524.2,52.7,526.1,52.6z"/>
			<path class="st12" d="M523,88.1c-0.2,0.1-0.3,0.2-0.4,0.3c0,0,0.1,0,0.1,0c0.2-0.1,0.4-0.2,0.6-0.4
				C523.2,88.1,523.1,88.1,523,88.1z"/>
			<path class="st20" d="M523.4,88c-0.1,0-0.1,0.1-0.1,0.1c-0.2,0.1-0.4,0.2-0.6,0.4c1,0.5,2.2,1.1,3.3,1.7
				c-0.3-0.6-0.7-1.1-1.1-1.8C524.5,87.9,523.9,87.8,523.4,88z"/>
			<path class="st12" d="M518.9,77.7c-0.1,0-0.2,0-0.2,0.1c-2.6,1.3-4.2,3.8-3.8,6.3c0.4,0.2,0.8,0.5,1.4,0.9
				c-0.1-0.2-0.2-0.4-0.2-0.6C515.4,81.7,516.6,79,518.9,77.7z"/>
			<path class="st20" d="M523.2,87.3c0.4-3.6-0.3-6-2.7-9.3c-0.3-0.5-1-0.6-1.5-0.4c-0.1,0-0.1,0.1-0.1,0.1
				c-2.3,1.2-3.6,3.9-2.8,6.6c0.1,0.2,0.2,0.4,0.2,0.6c1.4,0.9,3.5,2.1,6.1,3.4C522.8,88.2,523.2,87.8,523.2,87.3z"/>
			<path class="st12" d="M514,73.3c-0.8-2.6,0.5-5.3,2.8-6.6c-0.1,0-0.2,0-0.2,0.1c-2.8,1.4-4.4,4.2-3.7,6.8
				c0.8,2.6,3.6,4.2,6.7,3.9c0.1,0,0.2-0.1,0.2-0.1C517.2,77.6,514.7,76,514,73.3z"/>
			<path class="st20" d="M517,66.7c-0.1,0-0.1,0.1-0.1,0.1c-2.3,1.2-3.6,3.9-2.8,6.6c0.8,2.6,3.2,4.3,5.9,4.1c0.1,0,0.1,0,0.2,0
				c0.6-0.1,1-0.5,1-1.1c0.4-3.6-0.3-6-2.7-9.3C518.1,66.6,517.5,66.4,517,66.7z"/>
			<path class="st12" d="M517.8,66.4c0.1,0,0.2-0.1,0.2-0.1c-2.6,0.2-5.1-1.5-5.9-4.1c-0.2-0.9-0.3-1.7-0.1-2.6
				c-0.4,0.4-0.7,0.8-1.1,1.2c0,0.6,0,1.2,0.1,1.7C511.9,65.2,514.7,66.8,517.8,66.4z"/>
			<path class="st20" d="M518.1,66.4c0.1,0,0.1,0,0.2,0c0.6-0.1,1-0.5,1-1.1c0.4-3.6-0.3-6-2.7-9.3c-0.1-0.2-0.3-0.3-0.5-0.4
				c-1.4,1.4-2.7,2.7-4,4.1c-0.2,0.8-0.1,1.7,0.1,2.6C512.9,64.9,515.4,66.5,518.1,66.4z"/>
			<path class="st12" d="M517.4,55.2c-0.3,0-0.6,0-0.9,0c0,0-0.1,0.1-0.1,0.1c0.3,0,0.5,0,0.8,0C517.3,55.3,517.3,55.2,517.4,55.2z"
				/>
			<path class="st20" d="M517.6,55.2c0.6-0.1,1-0.5,1-1.1c0-0.4,0.1-0.8,0.1-1.2c-0.8,0.7-1.5,1.5-2.2,2.2c0.3,0,0.6,0,0.9,0
				C517.5,55.2,517.5,55.2,517.6,55.2z"/>
		</g>
	</g>
	<path class="st12" d="M613.4,83.2c0,0,4.3,11.2-0.4,21.6c0,0-18.9,3.4-33.3,20.6l10.4-27.5C590.1,97.9,608.4,94.1,613.4,83.2z"/>
	<path class="st23" d="M635.2,28.7c-1.2-0.4-2.4-1.1-3.4-1.9c-1.9-1.6-5.2-4.4-8.4-6.7c-6.8,5.8-14.7,13.9-16.9,21.7
		c-3.8,13.3-8.2,33.2,26.8,35.1c0.1-0.1,0.3-0.2,0.4-0.4c27.9-26.9,23.4-29.3,23.4-29.3S645,32.1,635.2,28.7z"/>
	<path class="st24" d="M657.2,47.2c0,0-12.3-15.1-22-18.5c-1.2-0.4-2.4-1.1-3.4-1.9c-1.9-1.6-5.2-4.4-8.4-6.7
		c-1.5,1.3-3,2.7-4.5,4.1c3.1,2.3,6.2,4.9,8.1,6.5c1.1,0.9,2.3,1.6,3.7,2.1c10.6,3.7,24,20.2,24,20.2s0.2,0.1,0.2,0.4
		C658.6,48,657.2,47.2,657.2,47.2z"/>
	<path class="st25" d="M631.9,42.8c0.9,3.9-1.6,7.8-5.5,8.6c-3.9,0.9-7.8-1.6-8.6-5.5c-0.9-3.9,1.6-7.8,5.5-8.6
		C627.1,36.4,631,38.9,631.9,42.8z"/>
	<path d="M630,43.1c0.6,2.9-1.2,5.7-4,6.3c-2.9,0.6-5.7-1.2-6.3-4c-0.6-2.9,1.2-5.7,4-6.3S629.4,40.3,630,43.1z"/>
	<path class="st25" d="M628.3,41.4c0.2,0.9-0.4,1.8-1.3,2c-0.9,0.2-1.8-0.4-2-1.3c-0.2-0.9,0.4-1.8,1.3-2
		C627.3,39.9,628.1,40.5,628.3,41.4z"/>
	<path class="st25" d="M623.6,47.9c0.2,0.9-0.4,1.8-1.3,2c-0.9,0.2-1.8-0.4-2-1.3s0.4-1.8,1.3-2C622.5,46.4,623.4,47,623.6,47.9z"/>
	<g>
		<g>
			<path class="st26" d="M647.9,58.7l-0.6-1c7.9-4.6,9.3-10.6,9.4-10.7l1.1,0.3C657.7,47.6,656.2,53.8,647.9,58.7z"/>
		</g>
	</g>
	<path class="st11" d="M510.3,61.4c0,0,2.5,20.7,7.8,24.7l-4.3-2.6C513.8,83.5,507.7,74.9,510.3,61.4z"/>
	<path class="st27" d="M613.6,86.4"/>
	<path class="st14" d="M592.1,114.2"/>
	<path class="st16" d="M613.4,83.8l-1.1,1.9c-1,2.2-2.6,3.1-4.2,5.1c-1.6,1.9-3.5,3.7-5.5,5.3c-4,3.2-8.8,5.4-13.8,6.8
		c8.4-1.6,16.4-6,22.1-12.7c-0.5,1.2-1.1,2.4-1.8,3.6c-1.6,2.5-3.7,4.8-6,6.7c-4.7,3.9-10.3,6.8-16.2,8.7c6-1.6,11.8-4.2,16.9-7.9
		c1.3-1,2.6-2,3.8-3.2c-1.3,1.8-2.9,3.6-4.5,5.2c-4.8,4.7-10.4,8.7-16.4,12c6.1-3,11.9-6.7,17.1-11.2c2.6-2.3,5-4.8,6.9-7.7
		c1.5-2.3,2.5-4.7,3-7.5C614.2,87.1,613.9,84.8,613.4,83.8z"/>
	<path class="st26" d="M623.6,75.1c-4.9-0.8-9.5-3.3-13-6.7c-0.8-0.9-1.6-1.8-2.4-2.8c-0.6-1-1.4-2-1.9-3.1
		c-1.2-2.1-1.8-4.4-1.9-6.7c-0.1-2.3,0.2-4.7,1-6.9c0.4-1.1,0.9-2.2,1.4-3.2c0.3-0.5,0.6-1,0.9-1.5l0,0l0.3-1
		c-0.4-0.8-0.6-1.3-0.7-1.4l-0.7-0.6c-0.4-0.3-1-0.4-1.5-0.3c-0.5,0.1-0.9,0.4-1.2,0.9c-0.4,0.8-0.8,1.6-0.9,2c-0.5,1.3-1,2.6-1.3,4
		c-0.7,2.7-0.8,5.5-0.4,8.3c0.2,1.4,0.6,2.7,1,4l0.8,1.9c0.3,0.6,0.7,1.2,1,1.8c0.6,1.2,1.6,2.2,2.4,3.2c0.9,1,1.9,1.9,2.8,2.8
		c4,3.5,9,5.7,14.2,6.3c2.6,0.4,5.2,0.2,7.8-0.1c1.2-0.2,2.4-0.4,3.6-0.7c0.3-0.3,0.6-0.6,0.9-0.9C631.7,75.6,627.6,75.8,623.6,75.1
		z"/>
</g>
<ellipse transform="matrix(0.2287 -0.9735 0.9735 0.2287 -368.2121 526.233)" class="st8" cx="148" cy="495.5" rx="11" ry="11"/>
<ellipse transform="matrix(0.7071 -0.7071 0.7071 0.7071 -190.179 289.5777)" class="st8" cx="254.5" cy="374.4" rx="11" ry="11"/>
<circle class="st8" cx="236.8" cy="547" r="11"/>
<ellipse transform="matrix(0.7474 -0.6644 0.6644 0.7474 -186.4935 353.6841)" class="st8" cx="371.9" cy="422.1" rx="11" ry="11"/>
<ellipse transform="matrix(0.2421 -0.9702 0.9702 0.2421 106.0423 517.8143)" class="st5" cx="384.5" cy="191" rx="11" ry="11"/>
<ellipse transform="matrix(0.2563 -0.9666 0.9666 0.2563 48.9807 551.4783)" class="st5" cx="382.9" cy="243.9" rx="11" ry="11"/>
<ellipse transform="matrix(0.2544 -0.9671 0.9671 0.2544 40.1258 509.7582)" class="st5" cx="350.7" cy="228.9" rx="11" ry="11"/>
<circle class="st5" cx="353.1" cy="202" r="7.8"/>
<circle class="st5" cx="371.7" cy="220.9" r="3"/>
<circle class="st5" cx="407.6" cy="175.9" r="3"/>
<path class="st5" d="M441.2,114.6c0-0.8,0.6-1.4,1.4-1.4c0.8,0,1.4,0.6,1.4,1.4c0,0.8-0.6,1.4-1.4,1.4
	C441.8,116,441.2,115.4,441.2,114.6z"/>
<circle class="st5" cx="443.4" cy="131.9" r="6.1"/>
<circle class="st5" cx="387.3" cy="155" r="7.8"/>
<circle class="st5" cx="414.2" cy="149.3" r="13.9"/>
<circle class="st5" cx="294.8" cy="285.8" r="26.3"/>
<circle class="st5" cx="336.4" cy="301" r="26.3"/>
<circle class="st5" cx="365.9" cy="313.2" r="26.3"/>
<circle class="st5" cx="345.3" cy="293.3" r="26.3"/>
<circle class="st5" cx="265.5" cy="315.4" r="26.3"/>
<ellipse transform="matrix(0.7071 -0.7071 0.7071 0.7071 -56.584 289.4771)" class="st5" cx="321.1" cy="213" rx="11" ry="11"/>
<ellipse transform="matrix(0.7071 -0.7071 0.7071 0.7071 -129.0756 306.777)" class="st5" cx="305.8" cy="309.2" rx="11" ry="11"/>
<ellipse transform="matrix(0.2265 -0.974 0.974 0.2265 4.148 524.2576)" class="st5" cx="332.1" cy="259.5" rx="33.8" ry="33.8"/>
<path class="st5" d="M319.8,228.1c0,0,2-3.7-3.7-5.3l15.7-7.2c0,0-3.4,6,0.3,10.1c0,0,15.8-8.4,13.2-22.7l14.5,3
	c0,0-4.9,4.3-5.4,12.5l-2.9,24.4l-23.9,4.6L319.8,228.1z"/>
<path class="st5" d="M356.8,219.7c0,0,13.7-9,16.7-28.7l15.1,10.2c0,0-26.6,11.1-27.1,26.5L356.8,219.7z"/>
<path class="st5" d="M361.1,226.1c0,0,5.4-0.3,7.6-5.2l2.8,3c0,0-9.5,3.7-10.4,8.5l-2.8-3.9L361.1,226.1z"/>
</svg>
